<?xml version="1.0" standalone="no"?>
<!DOCTYPE svg PUBLIC "-//W3C//DTD SVG 1.1//EN" "http://www.w3.org/Graphics/SVG/1.1/DTD/svg11.dtd" >
<svg>
<metadata>
Created by FontForge 20120731 at Sun Nov 17 00:52:36 2019
 By www
Copyright 1990-1993 Bitstream Inc.  All rights reserved.
</metadata>
<defs>
<font id="AIV2-" horiz-adv-x="1024" >
  <font-face 
    font-family="AIV2"
    font-weight="400"
    font-style="italic"
    font-stretch="normal"
    units-per-em="2048"
    panose-1="3 3 8 3 4 8 7 9 12 4"
    ascent="1638"
    descent="-410"
    x-height="629"
    cap-height="1281"
    bbox="-606 -676 2237.89 1577.79"
    underline-thickness="76"
    underline-position="-479"
    slope="-34"
    unicode-range="U+0020-03A9"
  />
<missing-glyph horiz-adv-x="1229" 
d="M102 -362v1806h1024v-1806h-1024zM217 -248h795v1577h-795v-1577z" />
    <glyph glyph-name=".notdef" horiz-adv-x="1229" 
d="M102 -362v1806h1024v-1806h-1024zM217 -248h795v1577h-795v-1577z" />
    <glyph glyph-name=".null" horiz-adv-x="0" 
 />
    <glyph glyph-name="nonmarkingreturn" horiz-adv-x="432" 
 />
    <glyph glyph-name="space" unicode=" " horiz-adv-x="432" 
 />
    <glyph glyph-name="exclam" unicode="!" horiz-adv-x="1478" 
d="M777 1205q47 -17 47 -54q0 -13 -24 -63q92 85 233 85q184 0 330 -166q98 -126 98 -285v-19q0 -196 -148 -414q-111 -121 -173 -158q-204 -140 -408 -140h-32q-70 0 -176 23q-70 0 -113 74q-14 32 -14 66v2q0 72 66 184v1h-2l-22 -1h-8l-23 4l-157 -296q-41 -28 -62 -28
q-53 -14 -96 -14h-19q-60 0 -88 46l-2 10v6q0 11 69 133l70 131h-2q-24 0 -47 40l-3 18v6q0 35 82 110q130 133 139 166l278 498l35 18zM818 814v-5q0 -75 101 -122q44 -12 65 -12l40 1q20 -8 20 -28q0 -32 -49 -46l-35 -3q-37 0 -89 17v-2q15 -28 15 -68q0 -85 -90 -116
l-24 -3h-20q-47 0 -89 47l-26 -36q66 -50 66 -129l-13 -145q0 -35 33 -52l30 -5q95 0 291 131q204 168 204 419q0 221 -156 291q-61 24 -108 24q-112 0 -163 -129zM698 897l-218 -415h2q27 0 45 32l70 100q64 76 139 76h12q-55 62 -55 141v7q0 31 7 58v1h-2z" />
    <glyph glyph-name="quotedbl" unicode="&#x22;" horiz-adv-x="678" 
 />
    <glyph glyph-name="numbersign" unicode="#" horiz-adv-x="1800" 
d="M1282 1185h6q139 0 276 -96q170 -144 170 -385q0 -202 -124 -437q-91 -158 -305 -234q-129 -39 -251 -39h-1q-120 0 -165 67q-27 45 -27 92v14q0 99 172 315h-2q-81 -65 -153 -156q-115 -152 -200 -306q-28 -21 -50 -21l-200 -10q-27 0 -37.5 18t-3.5 45q0 7 158 272
q45 81 67 129q-117 -118 -171 -190q-77 -96 -188 -248l-14 -11l-20 -5l-220 -10q-44 11 -35 64v5l185 276l-15 -2q-57 10 -57 55q0 39 107 136q101 109 161 109h6q84 0 115 -102l5 -33q141 146 237 146h16q84 0 126 -98q7 -20 11 -45q115 116 203 137l30 5v1
q-148 51 -148 219q0 222 212 301q68 22 124 22zM1077 821v-3q0 -76 99 -109q25 -6 46 -6q49 0 84 16h5q24 0 28 -28v-2q0 -39 -76 -59q-21 -4 -38 -4h-31q54 -37 71 -80q17 -42 17 -85q0 -112 -145 -291q-31 -37 -31 -46q16 -8 34 -8q67 0 196 87q212 198 212 414
q0 135 -76 262q-80 105 -213 105q-150 0 -180 -140z" />
    <glyph glyph-name="dollar" unicode="$" horiz-adv-x="1355" 
d="M888 1176h5q125 0 255 -83q115 -85 158 -223q23 -76 23 -150v-32q0 -191 -126 -422q-92 -154 -303 -225q-122 -35 -232 -35q-15 -18 -31 -18h-2q-95 0 -143 100q-15 40 -15 83v10q0 98 100 221h-2q-152 -157 -241 -286q-72 -103 -75 -103q-21 -17 -51 -17l-215 -10
q-49 16 -38 65q0 7 101 150l84 126v2l-17 -3h-7q-53 8 -53 49v4q0 38 82 114q130 137 211 137q77 0 109 -105q4 -26 4 -45v-5q113 105 158 123q58 33 118 33v2q-51 3 -116 49q-70 64 -70 176q0 223 213 298q60 20 116 20zM687 823v-10q0 -77 109 -108l29 -3q53 0 87 16h4
q26 -5 26 -22v-11q0 -34 -72 -54q-21 -4 -38 -4h-47l-8 1h-2v-1q26 -3 65 -37q50 -53 50 -145q0 -108 -117 -256q-30 -53 -30 -63q12 -5 22 -5h4q55 3 158 80q221 198 221 404v25q0 109 -65 231q-79 118 -220 118q-123 0 -165 -101q-11 -33 -11 -55z" />
    <glyph glyph-name="percent" unicode="%" horiz-adv-x="1023" 
d="M604 1109h8q172 0 288 -131q97 -127 97 -286v-30q0 -122 -56 -257q-84 -189 -295 -283q-62 -26 -203 -50q-20 0 -27 -10q-103 -75 -203 -75h-25q-127 0 -191 126q-17 45 -17 89v11q0 148 179 303q160 120 305 120q135 0 187 -118q13 -42 13 -83q0 -91 -62 -185h2
q34 6 103 65q59 64 90 126q45 93 45 176v11q0 101 -62 209q-68 99 -176 99h-7q-112 0 -148 -86q-8 -31 -8 -45v-11q0 -58 70 -83q24 -8 46 -8q38 0 79 19h9q16 0 21 -23q0 -51 -99 -63l-26 -2h-17q-136 0 -185 115q-15 46 -15 93q0 194 208 256q35 11 72 11zM234 120v-2h4
q32 0 63 25v5q0 76 94 112q27 2 27 11q94 125 94 193v6q0 36 -20 36q-71 -26 -180 -198q-82 -128 -82 -188z" />
    <glyph glyph-name="ampersand" unicode="&#x26;" horiz-adv-x="1274" 
d="M853 1172h6q104 0 206 -52q120 -66 182 -206q42 -102 42 -225q0 -166 -77 -360q-73 -171 -247 -257q-47 -24 -115 -44q-37 -10 -90 -20q-70 -11 -113 -11v0q-2 -21 -3 -36q8 -51 8 -102v-1q0 -131 -96 -274q-19 -28 -53 -66q-127 -134 -254 -134h-1q-103 0 -144 85
q-16 37 -16 85q0 93 70 221q42 78 93 163h-1q-22 -4 -43 -4q-89 0 -152 67q-38 46 -49 94q-6 29 -6 56v6q0 104 94 226q18 24 58 65q60 56 97 80q130 91 255 91q74 0 115 -34v0q34 22 36 22l66 18v1q-11 0 -50 12q-72 29 -105 98q-25 54 -25 127q0 146 101 229q23 19 42 30
q28 16 60 28q61 22 109 22zM668 815v-7q0 -46 39 -78q42 -31 93 -31q26 0 67 13q15 9 18 9q3 1 7 1h3q18 0 25 -20v-7v-1q0 -28 -32 -48l-7 -3v-1q37 -19 37 -47v-1q0 -23 -18 -52l-212 -376q-19 -32 -24 -51q-2 -10 -2 -16v-3q0 -6 3 -6q21 -4 37 -4q102 0 227 120
q46 47 71 81q120 159 120 320q0 115 -62 236q-13 23 -34 50q-71 81 -175 81q-125 0 -165 -90q-16 -38 -16 -69zM242 72q20 7 57 36q49 43 84 85q54 67 91 128q31 50 62 112q3 5 3 22q-1 24 -6 25q-11 -3 -36 -24q-40 -39 -45 -48q-44 -50 -92 -122q-37 -55 -63 -102
q-35 -62 -55 -112zM521 -129q-103 -183 -155 -277l-21 -41h1q17 11 53 47l13 16q22 25 40 54q27 44 46 92q10 25 18 61q6 31 6 47v1h-1z" />
    <glyph glyph-name="quotesingle" unicode="'" horiz-adv-x="348" 
 />
    <glyph glyph-name="parenleft" unicode="(" horiz-adv-x="900" 
d="M512 1209h8q179 0 307 -139q113 -142 113 -328v-26q0 -157 -79 -346q-79 -160 -290 -242q-52 -16 -112 -30q-83 -114 -249 -114h-8q-131 0 -191 110q-11 29 -11 52v9q0 86 94 118l31 3q81 0 106 -82q0 -7 2 -7q44 115 44 217q-102 -108 -125 -108l-12 -1h-2q-52 0 -59 63
q0 36 90 112q159 146 159 166q14 27 41 50v2q-42 4 -98 51q-59 65 -59 173q0 223 236 289q34 8 64 8zM333 865q0 -75 85 -103q22 -6 45 -6q37 0 83 22h10q15 0 20 -22v-9q0 -47 -105 -65l-20 -1q23 -23 23 -45v-8q0 -26 -46 -73q62 -94 81 -137q18 -49 18 -83v-17l-6 -62
l3 -12h1q56 9 162 165q80 131 80 249v16q0 121 -73 245q-73 100 -185 100h-5q-120 0 -158 -94q-13 -41 -13 -60z" />
    <glyph glyph-name="parenright" unicode=")" horiz-adv-x="1636" 
d="M1187 1263h6q93 0 185 -44q24 -12 65 -43q19 -15 50 -45q33 -34 49 -56q26 -36 43 -70q51 -101 51 -214v-8q0 -133 -70 -272q-17 -34 -45 -77q-24 -36 -63 -82q-17 -21 -62 -65q-52 -48 -82 -71q-46 -37 -97 -69q-57 -35 -115 -56q-29 -12 -78 -24l-36 -7l1 -2
q-91 -23 -238 -43t-267 -20h-10q-120 0 -218 20q-22 3 -55 20q-133 49 -113 152q0 51 38 143h-8q-22 0 -44 24q-14 18 -14 38v3q0 31 41 68l41 36q101 99 101 101q40 46 61 77q43 61 81 129l149 241l65 106l35 19q193 14 185 -17l-92 -135q73 2 73 1l47 62q55 79 166 140
q85 40 174 40zM869 906v-6q0 -41 35 -87q21 -23 31 -30q20 -16 51 -28q31 -13 51 -13q24 0 32 -20q1 -5 1 -9q0 -22 -28 -37q-11 -6 -28 -6h-1q-37 0 -79 16q-34 15 -71 40q-20 14 -41 33q-28 27 -34 37l-15 24l-26 -20h-128q-6 -9 -131 -224q-90 -155 -134 -236
q-39 -71 -54 -117q-5 -11 -9 -27q-3 -16 -3 -26q0 -4 0.5 -5t40 -5.5t85.5 -2t112 8.5q122 12 201 28q88 17 150 40q71 25 127 57q40 22 86 56q19 15 52 48q38 40 54 64q25 35 41 68q21 39 39 102q23 86 23 149q0 111 -66 187q-25 27 -37 35q-26 20 -55 34q-52 26 -96 26h-5
q-70 0 -131 -65q-23 -28 -30 -45q-10 -24 -10 -44z" />
    <glyph glyph-name="asterisk" unicode="*" horiz-adv-x="946" 
d="M561 1073h5q100 0 207 -63q28 -18 64 -53q116 -125 116 -309v-12q0 -175 -104 -384q-80 -144 -243 -209q-59 -21 -107 -33q-94 -22 -159 -22q-22 0 -49 5q-26 0 -68 21q-70 50 -70 140v11q0 106 107 241l25 27h-8q-3 0 -18 -16q-35 -31 -97 -94q-36 -34 -61 -34h-6
q-36 0 -54 40q-2 9 -2 16v5q0 29 58 81q90 88 90 90q19 76 34 103q19 42 57 42l15 -1v0q-25 47 -25 114v1q0 208 194 276q54 17 99 17zM382 743q0 -71 85 -99q22 -6 40 -6q30 0 61 10q7 5 18 5q16 0 23 -17v-5v-6q0 -35 -62 -53q-23 -6 -63 -6l-4 1h-1v-1q31 -8 70 -42
q37 -40 37 -86q0 -55 -80 -166q-28 -41 -95 -130q-15 -24 -16 -33h2l25 -1q77 0 160 61q22 15 71 68q137 156 137 324q0 98 -47 202q-67 127 -201 127q-111 0 -148 -91q-12 -33 -12 -56z" />
    <glyph glyph-name="plus" unicode="+" horiz-adv-x="1134" 
d="M747 1075h6q57 0 133 -30q42 -17 77 -41q15 -11 44 -39q102 -109 102 -275q0 -165 -104 -353q-71 -121 -215 -177q-35 -14 -77 -24q-57 -19 -126 -19h-15l-41 2h-4h-1v0q-132 -123 -255 -123h-8q-94 0 -151 63q-44 50 -44 124q0 67 48 151h-1l-5 -1q-5 0 -35 13
q-4 1 -12 12q-8 14 -8 27v4q0 24 38 66q30 35 107 112q47 42 64 52q36 21 69 21h7q46 0 82 -38q37 -43 37 -114v-8q17 32 39 62q11 15 39 45q33 30 58 39q5 3 15 6q0 1 -12 4q-68 24 -98 75q-23 43 -23 100v3q0 142 105 212q28 17 59 30q57 19 106 19zM584 781q0 -50 54 -78
q32 -14 61 -14q28 0 51 6q8 6 17 6q18 0 24 -20l1 -6q0 -18 -23 -35q-14 -7 -34 -13q-20 -4 -27 -4v0q53 -33 53 -119q0 -75 -45 -153q-38 -58 -103 -141v-1q26 0 91 23q30 19 79 59q37 33 64 64q43 53 60 86q47 86 47 173v9q0 76 -36 163q-10 22 -29 47q-60 76 -163 76
q-102 0 -134 -85q-8 -23 -8 -43zM419 340q-39 -77 -100 -167q-32 -52 -32 -56v0q6 0 36 9q30 11 60 30q24 16 57 47l1 1q-9 18 -14 47q-8 34 -8 58v5q0 14 1 25v1h-1z" />
    <glyph glyph-name="comma" unicode="," horiz-adv-x="432" 
 />
    <glyph glyph-name="hyphen" unicode="-" horiz-adv-x="1361" 
d="M954 1174h6q99 0 209 -68q25 -16 55 -42q33 -31 38 -39q28 -35 40 -58q60 -104 60 -235q0 -193 -129 -412q-32 -52 -60 -90q-13 -16 -39 -43q-30 -29 -55 -46q-34 -26 -72 -47q-57 -32 -133 -58q-119 -39 -231 -39h-6q-27 0 -68 4q-57 0 -102 35q-16 16 -21 22
q-21 27 -29 67l-1 8q-23 -27 -47 -51q-32 -30 -48 -40q-63 -41 -126 -41q-67 0 -112 49q-35 42 -35 106q0 57 40 141v0q-13 3 -25 14q-13 13 -16 26q-2 5 -2 8v2q0 34 33 65q10 8 43 38q80 76 107 103q49 52 53 55q26 11 28 11l193 14l38 -62l-160 -276q-5 -8 -40 -68v0
q71 81 119 150q79 106 150 217q4 8 16 14q19 11 21 11l146 29v0q-73 23 -113 69q-45 55 -45 135q0 59 23 127q34 94 112 144q24 15 44 23q71 28 141 28zM752 828v-3q0 -43 37 -77q30 -26 63 -36q21 -7 54 -7h8q19 0 33 7h7q18 0 25 -17q2 -4 2 -8v-2q0 -21 -27 -39
q-14 -6 -32 -10q-6 -1 -20 -3q5 -10 5 -21v-4q0 -25 -26 -73q-49 -94 -154 -276q-37 -64 -56 -101q-5 -15 -5 -24q0 -15 13 -18q4 -1 14 -2q38 0 118 37q45 21 98 57q33 22 76 59q188 168 188 384q0 70 -21 145q-11 36 -24 61q-43 78 -123 107q-48 17 -92 17
q-103 0 -147 -97q-14 -31 -14 -56z" />
    <glyph glyph-name="period" unicode="." horiz-adv-x="432" 
 />
    <glyph glyph-name="slash" unicode="/" horiz-adv-x="500" 
d="M619 1138h38q196 0 297 -245q19 -69 19 -116v-71q0 -271 -271 -690l-19 -6q-301 39 -522 129q-361 180 -361 412v39q0 200 213 284q42 19 103 19h26q91 0 167 -52q0 181 252 290zM-123 577v-13q0 -88 45 -122h13q20 0 20 26q-26 50 -26 83v26q0 127 135 181q26 0 26 19
v19l-13 13q-200 -52 -200 -232zM-39 377v-19l13 -13h19l20 19l-20 26h-19z" />
    <glyph glyph-name="zero" unicode="0" horiz-adv-x="848" 
d="M426 1104h14q145 0 271 -96q79 -74 96 -117q69 -120 69 -264v-36q0 -174 -96 -393q-88 -167 -291 -250q-148 -52 -280 -52h-10q-6 -6 -77 -123q-55 -86 -146 -197q-187 -215 -365 -215q-104 0 -142 96q-7 23 -7 45v10q0 161 295 350q102 60 211 106l129 224v2
q-21 0 -42 37l-3 16v6q0 35 72 90q155 151 158 163q24 17 71 32v1q-178 0 -229 142q-16 58 -16 107q0 217 220 299q59 17 98 17zM237 742v-12q0 -78 96 -109l37 -4h7v1q-12 24 -12 50v9q0 78 95 122q26 7 42 7h8q69 0 100 -64q11 -24 11 -47q0 -82 -84 -126q13 -23 13 -46
q0 -62 -106 -226q-38 -63 -151 -239l-35 -60l7 -2l7 2h3q117 0 248 124q182 201 182 394v15q0 128 -80 265q-80 107 -201 107q-129 0 -171 -94q-16 -38 -16 -67zM-406 -500q2 -14 13 -14h5q105 0 258 299h-2q-82 -46 -174 -127q-100 -90 -100 -158z" />
    <glyph glyph-name="one" unicode="1" horiz-adv-x="1274" 
d="M836 1176h11q105 0 203 -51q139 -94 202 -291q20 -80 20 -146v-20q0 -198 -129 -427q-82 -138 -273 -210q-138 -44 -266 -44q-93 0 -161 44q-33 39 -37 65q-106 -100 -207 -100h-17q-93 0 -154 88q-28 47 -28 101v12q0 234 330 400q80 32 137 32h20q69 0 118 -45
q9 17 34 29q0 5 59 7l27 3v1q-63 0 -131 51q-69 66 -69 190q0 222 227 297q45 14 84 14zM649 813q0 -85 103 -113l35 -2h1q40 0 87 22l6 1q20 0 25 -26q0 -46 -80 -66v-2l35 -49v-2l-214 -444q28 -4 53 -4q207 0 341 230q70 125 70 250q0 120 -69 249q-77 122 -208 122
q-129 0 -172 -100q-13 -41 -13 -66zM212 105h1q103 28 265 260q57 88 57 112v2q0 21 -17 28h-8q-41 -1 -168 -171q-126 -178 -130 -231z" />
    <glyph glyph-name="two" unicode="2" horiz-adv-x="1424" 
d="M872 1217l14 -6l26 -57l-39 -64h1q72 54 168 54q83 0 159 -39q28 -15 61 -41q43 -37 67 -68q21 -28 30 -47q11 -23 22 -60q22 -77 22 -161v-2q0 -164 -80 -299q-19 -31 -45 -63q-11 -15 -42 -46q-42 -37 -66 -51q-36 -25 -72 -41q-142 -64 -335 -64q-71 0 -151 11
q-22 -24 -47 -45q-42 -35 -71 -55q-114 -75 -211 -75h-7q-90 0 -140 68q-31 46 -31 112q0 56 38 147h-1q-41 0 -58 38q-4 11 -4 21v3q0 23 27 52q9 11 46 47q95 98 126 134q43 46 49 57l168 271q127 204 145 233q29 16 31 17zM861 843v-3q0 -48 48 -91q25 -20 50 -27
q27 -10 39 -10l11 1q12 0 21 -12q4 -6 4 -12v-4q0 -18 -23 -31q-12 -5 -26 -5h-6q-25 0 -57 9q-40 16 -75 40q-43 31 -67 67q-27 45 -27 93v5q0 15 3 31q-5 -7 -105 -175l-36 -59h1q41 28 82 28h2q65 0 95 -57q18 -38 18 -99q0 -96 -47 -182q-22 -31 -96 -115v0q33 2 58 6
q60 11 101 24q72 23 125 51q44 24 91 59q15 12 49 46q24 25 37 44q17 22 33 50q15 29 29 71q7 22 16 66q9 50 9 83q0 111 -75 178q-22 18 -40 29q-54 30 -100 30q-69 0 -120 -69q-22 -31 -22 -60zM460 402q-85 -149 -142 -281v0q20 6 38 13q34 15 71 41q28 17 63 49h1v1
q-34 55 -34 128q0 24 3 48v1v0z" />
    <glyph glyph-name="three" unicode="3" horiz-adv-x="929" 
d="M473 1188h8q181 0 311 -133q127 -144 127 -349v-16q0 -313 -163 -490q-79 -82 -122 -104q-185 -112 -398 -112q-169 0 -222 136q-14 40 -14 86v8q0 196 239 345q105 59 166 66v1h-3l-7 -1q-172 0 -224 141q-15 45 -15 104v5q0 222 229 299q48 14 88 14zM283 819v-1
q0 -80 92 -110q24 -5 41 -5h7q41 0 90 23h5q18 0 23 -23v-11q0 -37 -82 -60v-1h15q94 0 139 -75q17 -34 17 -73q0 -83 -80 -122q-25 -9 -48 -9q-73 0 -103 72l-1 5q-47 -59 -105 -162q-54 -106 -54 -152q0 -38 32 -52l31 -6q63 0 146 49q199 142 276 351q25 77 25 141v23
q0 123 -77 256q-76 110 -203 110q-125 0 -169 -91q-17 -40 -17 -77z" />
    <glyph glyph-name="four" unicode="4" horiz-adv-x="1340" 
d="M890 1218h9q171 0 302 -120q143 -147 143 -372v-4q0 -194 -103 -400q-110 -197 -352 -291q-124 -44 -250 -44h-11q-102 0 -164 39q-31 25 -44 75q-110 -109 -213 -109h-10q-94 0 -155 84q-32 49 -32 112v8q0 238 332 404q80 36 152 36q81 0 132 -50h2l53 101
q-107 58 -107 213v12q0 205 211 287q60 19 105 19zM701 858v-10q0 -44 30 -73l133 242h-2q-52 0 -110 -40q-51 -55 -51 -119zM1075 925q-365 -657 -409 -743l-33 -71h2l28 -2q245 0 398 225q106 153 106 302v14q0 122 -74 254zM225 104h1q107 30 273 271q53 83 53 106v6
q-4 25 -24 25q-55 -14 -186 -195q-115 -165 -117 -213z" />
    <glyph glyph-name="five" unicode="5" horiz-adv-x="945" 
d="M493 1199h9q174 0 304 -122q140 -150 140 -387q0 -189 -85 -391q-31 -64 -84 -131q-150 -181 -432 -181h-40q-140 0 -232 66q-73 65 -73 164v11q0 193 280 358q101 48 126 48l1 1h2v2h-10q-133 0 -196 111q-27 56 -27 137q0 218 220 297q55 17 97 17zM303 833v-2
q0 -85 94 -113q21 -5 40 -5h5q44 0 92 24h6q18 0 24 -27q0 -44 -75 -65v-1q71 0 120 -60q28 -39 28 -97q0 -141 -212 -239q-58 -27 -141 -47q-29 0 -29 -19q-18 -53 -18 -66q35 -14 78 -14h12q136 0 281 136q164 190 164 381q0 135 -80 272q-77 108 -201 108
q-125 0 -170 -89q-18 -43 -18 -77zM317 332h2q39 13 113 85q45 55 45 94v6l-2 1v2q-23 -8 -69 -58q-66 -79 -89 -130z" />
    <glyph glyph-name="six" unicode="6" horiz-adv-x="1251" 
d="M903 1254h7q111 0 153 -88q12 -34 12 -66q0 -157 -261 -401h2q46 20 94 20q123 0 227 -103q98 -120 98 -231v-25q0 -160 -128 -322q-59 -64 -106 -95q-175 -115 -318 -115h-23q-174 0 -336 67q-66 25 -119 55h-3q-274 -480 -288 -501q-25 -23 -71 -23l-155 -20
q-8 0 -44 62v3q0 4 157 276l193 335q-17 30 -17 54v8q0 76 89 120l39 8l12 22q-28 0 -49 42q-3 6 -3 16v12q0 27 86 104q122 122 156 176q77 103 191 279q76 111 176 218q121 113 229 113zM605 706q48 32 178 168q121 143 121 230v16l-3 3h-2q-58 0 -188 -212
q-59 -105 -106 -205zM282 86q144 -122 323 -122q120 0 251 74q120 73 179 233q15 46 15 83v13q0 111 -121 183q-32 12 -57 12q-63 0 -115 -59q-15 -24 -15 -50q0 -80 97 -130q26 -3 26 -21v-8q0 -20 -36 -27h-8q-57 0 -138 93q-40 59 -40 116t40 114v1q-54 -40 -178 -119z
" />
    <glyph glyph-name="seven" unicode="7" horiz-adv-x="1314" 
d="M818 1196h9q183 0 320 -128q145 -155 145 -394q0 -169 -68 -362q-83 -213 -267 -303q-178 -86 -369 -86h-28q-4 -1 -59 -101q-69 -124 -181 -259q-162 -178 -332 -178q-138 0 -201 109q-17 36 -17 69v11q0 209 379 367v3q-39 0 -102 48q-67 66 -67 163q0 237 330 419
q101 48 184 48q87 0 143 -53q6 20 40 35q0 2 -45 12q-86 34 -121 105q-27 57 -27 143q0 231 232 314q58 18 102 18zM617 809v-1q0 -90 100 -119q21 -6 42 -6h5q47 0 97 25h6q19 0 25 -28q0 -38 -53 -59v-2l31 3q9 0 42 -61q-17 -36 -285 -519q-20 -30 -20 -34h1
q138 23 225 80q77 49 164 167q116 167 116 329q0 143 -85 286q-82 115 -213 115q-140 0 -185 -108q-13 -40 -13 -68zM206 57q111 27 287 278q62 96 62 128q0 23 -24 27h-1q-52 -6 -197 -207q-115 -165 -127 -226zM-72 -439v-10q0 -38 48 -38q95 0 270 333h-2
q-70 -31 -150 -82q-166 -123 -166 -203z" />
    <glyph glyph-name="eight" unicode="8" horiz-adv-x="1387" 
d="M769 1209q7 0 42 -57v-2q0 -6 -34 -68v-2q94 72 217 72q137 0 278 -117q129 -135 129 -314v-33q0 -207 -164 -458q-96 -147 -294 -214q-96 -28 -194 -28h-15q-193 0 -245 95q-27 47 -27 111q0 104 84 225h-1q-192 -210 -298 -373q-22 -31 -75 -31l-165 -9q-7 0 -40 56v5
q8 21 138 261q-86 -40 -98 14v5q0 36 78 104q182 187 188 219l281 499q25 21 42 21zM787 800q0 -78 104 -116q23 -5 59 -5l45 7q19 0 24 -27q0 -42 -77 -53l-19 -1q-21 0 -65 7q28 -48 28 -119q0 -136 -181 -340l-1 -6q22 -38 71 -38q106 0 266 144q171 166 171 371
q0 138 -61 233q-76 100 -199 100h-9q-116 0 -154 -135zM670 878l-171 -330q112 101 153 113q24 15 68 23q-53 58 -53 143l4 50v1h-1z" />
    <glyph glyph-name="nine" unicode="9" horiz-adv-x="956" 
d="M459 1226h15q155 0 289 -107q68 -66 96 -119q67 -130 67 -271v-34q0 -181 -98 -407q-94 -178 -305 -263q-155 -54 -288 -54h-44q-2 3 -34 9q-100 39 -100 157q0 51 50 159h-4q-22 0 -44 30l-5 22v4q0 33 57 79q170 167 182 188q42 21 52 21v1q-45 0 -112 34
q-104 65 -104 222q0 228 230 311q57 18 100 18zM261 843q0 -102 133 -122q-19 28 -19 69q0 83 99 129q24 8 45 8h9q75 0 107 -76q5 -16 5 -39v-3q0 -78 -80 -127q9 -17 9 -42q0 -53 -75 -175q-136 -248 -179 -335l-2 -18q0 -26 27 -26q55 0 188 88q221 219 221 445v7
q0 126 -70 259q-83 133 -222 133q-135 0 -178 -99q-13 -23 -18 -76z" />
    <glyph glyph-name="colon" unicode=":" horiz-adv-x="559" 
 />
    <glyph glyph-name="semicolon" unicode=";" horiz-adv-x="1077" 
d="M704 1064h8q110 0 227 -95q128 -123 128 -319v-1q0 -246 -191 -515q-71 -78 -113 -100q-57 -38 -132 -60l-84 -19q0 -163 -186 -365q-132 -123 -250 -168q-93 -37 -165 -37q-120 0 -173 102q-11 27 -11 53v11q0 218 519 469l49 24v1q0 9 -8 16q-83 -66 -187 -66
q-72 0 -99 57q-6 15 -6 35q0 89 146 119q29 5 57 5h13l47 -3l29 36v2q-45 5 -92 37q-46 45 -46 92v1h-2q-45 -33 -71 -33q-58 12 -58 54v5q0 52 145 155q83 71 147 71h3q81 0 113 -92l3 -35q0 -61 -48 -120h2q22 30 90 137l26 34q-85 35 -110 92q-21 44 -21 86v21
q0 119 80 221q92 92 221 92zM515 722q0 -75 89 -107q24 18 48 18h14q54 0 76 -69q3 -8 3 -27v-3q0 -72 -181 -216q-114 -113 -137 -153q57 -31 99 -108q52 22 134 82q229 185 229 430q0 211 -126 282q-54 22 -102 22q-104 0 -143 -122zM-87 -468q0 -9 12 -12q96 19 294 315
h-2q-81 -45 -178 -122q-126 -112 -126 -181z" />
    <glyph glyph-name="less" unicode="&#x3c;" horiz-adv-x="552" 
d="M477 957h34q295 0 409 -276q17 -61 17 -103v-41q0 -204 -213 -333q-56 -23 -115 -23q-64 0 -98 46q-70 -46 -126 -46q-176 0 -207 236v29q0 203 219 316l69 5q53 0 120 -46q21 35 69 35q69 -20 69 -69v-6q0 -50 -69 -345q138 71 138 230q0 162 -201 236l-81 11h-34
q-131 0 -236 -103q-97 -107 -97 -259v-5q0 -214 184 -288q99 -34 183 -34q186 0 305 132l35 11h11q69 0 69 -86q-135 -201 -420 -201q-344 0 -471 259q-40 73 -40 189v35q0 291 276 454q115 40 201 40zM339 428v-11q0 -75 63 -92q132 53 132 195q0 104 -74 104
q-71 0 -115 -150z" />
    <glyph glyph-name="equal" unicode="=" horiz-adv-x="1110" 
d="M767 1065h6q57 0 133 -30q42 -17 77 -41q15 -11 44 -39q102 -109 102 -275q0 -165 -104 -353q-71 -121 -215 -177q-35 -14 -77 -24q-57 -19 -126 -19h-15l-41 2h-4h-1v0q-132 -123 -255 -123h-8q-94 0 -151 63q-44 50 -44 124q0 67 48 151h-1l-5 -1q-5 0 -35 13
q-4 1 -12 12q-8 14 -8 27v4q0 24 38 66q30 35 107 112q47 42 64 52q36 21 69 21h7q46 0 82 -38q37 -43 37 -114v-8q17 32 39 62q11 15 39 45q33 30 58 39q5 3 15 6q0 1 -12 4q-68 24 -98 75q-23 43 -23 100v3q0 142 105 212q28 17 59 30q57 19 106 19zM604 771q0 -50 54 -78
q32 -14 61 -14q28 0 51 6q8 6 17 6q18 0 24 -20l1 -6q0 -18 -23 -35q-14 -7 -34 -13q-20 -4 -27 -4v0q53 -33 53 -119q0 -75 -45 -153q-38 -58 -103 -141v-1q26 0 91 23q30 19 79 59q37 33 64 64q43 53 60 86q47 86 47 173v9q0 76 -36 163q-10 22 -29 47q-60 76 -163 76
q-102 0 -134 -85q-8 -23 -8 -43zM439 330q-39 -77 -100 -167q-32 -52 -32 -56v0q6 0 36 9q30 11 60 30q24 16 57 47l1 1q-9 18 -14 47q-8 34 -8 58v5q0 14 1 25v1h-1z" />
    <glyph glyph-name="greater" unicode="&#x3e;" horiz-adv-x="600" 
d="M508 1292h55q337 0 502 -371q27 -117 27 -172q0 -348 -364 -515q-107 -34 -185 -34q-361 0 -522 385q-21 74 -21 144v55q0 277 309 460q123 48 199 48zM611 949q13 -151 83 -151q26 0 55 41q0 165 -69 165h-28q-41 -30 -41 -55zM288 887q12 -144 69 -144h14q55 0 55 55
q0 151 -83 151q-42 0 -55 -62zM872 736v-42q0 -217 -233 -302q-31 -13 -90 -13h-6q-208 0 -309 247l-28 7l-21 -21q0 -113 172 -240q104 -55 199 -55q279 0 371 316l7 82q0 36 -21 41h-20z" />
    <glyph glyph-name="question" unicode="?" horiz-adv-x="1200" 
d="M781 1020h9q120 0 255 -100q92 -88 118 -165q35 -91 35 -177v-6l2 -13l-2 -13v-8q0 -209 -170 -478q-53 -73 -133 -129q-155 -97 -346 -97h-11l-159 -265q-176 -245 -398 -245q-150 0 -205 139q-6 31 -6 49v10q0 202 376 366v2q-42 13 -78 65q-24 45 -24 89v23
q0 75 56 186h-2q-19 -11 -35 -11q-46 10 -46 22q-14 10 -14 39q0 45 180 204q72 62 137 62q84 0 126 -100q13 -35 13 -79q0 -93 -95 -250v-1q118 132 171 217q4 0 77 116q-14 0 -77 37q-84 61 -84 179q0 139 90 240q101 92 240 92zM575 657v-3q0 -72 94 -109q11 13 83 13
q40 4 143 9q8 0 44 -65v-1q-62 -110 -340 -567h2q55 22 133 74q273 205 273 453v24q0 132 -67 237q-77 96 -199 96q-121 0 -161 -125q-5 -20 -5 -36zM-64 -513v-2q0 -30 27 -30h11q98 0 263 320l2 2h-4q-299 -142 -299 -290z" />
    <glyph glyph-name="at" unicode="@" horiz-adv-x="1485" 
d="M1017 1175h8q182 0 315 -157q108 -136 108 -293q0 -284 -307 -537q-164 -134 -347 -171q-156 -28 -293 -28h-35q-172 0 -328 44q-91 45 -91 153q0 53 35 139q-40 0 -54 45l-2 14v2q0 33 71 98q146 150 177 211l265 432q29 21 61 21l144 15q7 0 43 -59v-3l-40 -77
q109 151 270 151zM807 833v-2q0 -75 84 -134q51 -28 81 -28q18 -10 18 -27q0 -33 -54 -40q-86 0 -192 110q-58 71 -58 145q0 42 18 88v2h-1l-404 -746q-7 -20 -9 -37q57 -23 146 -23q147 0 370 59q244 85 338 259q75 141 75 253v5q0 166 -171 249q-38 15 -69 15h-5
q-83 0 -148 -86q-19 -32 -19 -62z" />
    <glyph glyph-name="A" unicode="A" horiz-adv-x="1523" 
d="M1818 1316h2q54 -7 54 -54q0 -28 -105 -207q-236 -417 -432 -807h1q33 7 132 88q166 166 250 166q48 0 112 -82q3 -6 3 -17v-3q0 -28 -46 -51q-33 -32 -71 -65q-145 -129 -196 -162q-98 -76 -200 -83q-33 -3 -33 -10q-13 -34 -44 -34l-282 -9q-41 10 -41 41v8q3 15 23 60
q-75 28 -116 56q-33 15 -105 69h-2q-270 -264 -494 -264h-12q-168 0 -232 140q-17 46 -17 91v11q0 171 130 237q46 17 86 17q97 0 152 -78q14 -26 14 -55v-13q0 -107 -146 -138q-58 -14 -58 -20v-5q11 -34 81 -38h21q157 0 379 216q-70 97 -70 196v18q0 131 133 208
q49 19 92 19h12q98 0 193 -76l1 1q228 233 305 296q385 333 526 333zM1068 590q58 -99 66 -174h2q180 289 438 647v1q-77 -50 -298 -262zM722 443q3 -35 8 -35q119 125 165 178l-30 5q-70 0 -125 -82q-18 -33 -18 -66zM809 322v-1q110 -80 172 -96v1q18 73 18 126v16
q0 67 -27 127z" />
    <glyph glyph-name="B" unicode="B" horiz-adv-x="1614" 
d="M1278 1317h15q168 0 321 -61q118 27 136 27q47 0 66 -38l3 -15v-8q0 -30 -34 -52q121 -92 121 -192v-23q0 -119 -129 -224q-63 -47 -147 -75l-54 -21v-1q171 -71 181 -237v-21q0 -179 -223 -333q-151 -91 -311 -91q-185 0 -231 118q-7 18 -10 58q3 41 13 67
q-227 -225 -573 -225q-257 0 -355 176q-24 52 -14 126v-4q0 142 153 233q50 19 93 19q116 0 163 -99q8 -31 8 -48q0 -90 -85 -134q-23 -8 -93 -15q-26 -7 -32 -14q0 -20 77 -51q50 -13 102 -13q169 0 257 134q93 122 214 342l23 36v1q-147 -157 -351 -157h-8
q-186 0 -273 140q-28 53 -28 108q0 182 266 360q118 72 242 117q253 90 497 90zM403 742q0 -55 58 -75q16 -5 33 -5h13q129 0 299 156q83 92 104 166q15 75 31 98q18 22 43 22q43 0 61 -42q9 -19 9 -70v-21q0 -86 -32 -171q200 275 400 382v2q-79 11 -152 11
q-279 0 -585 -150q-77 -41 -159 -109q-123 -117 -123 -194zM1307 717q73 -11 96 -11q83 0 185 145q53 92 53 184v13q0 35 -31 70q-149 -59 -268 -315q-35 -81 -35 -86zM1123 354h2q53 41 97 41q64 -10 64 -62q0 -38 -85 -87q-83 -63 -83 -116q0 -40 37 -40q134 0 261 214
q58 112 48 194q-28 76 -52 76q-56 -8 -77 -8h-30q-26 0 -54 18q-6 -7 -29 -59q-48 -95 -99 -171z" />
    <glyph glyph-name="C" unicode="C" horiz-adv-x="1134" 
d="M746 1265h18q101 0 115 -38q6 -12 7 -28q0 -39 -46 -56q-7 -3 -22 -3q-138 0 -231 -48q-58 -26 -118 -69q-47 -31 -132 -121q-107 -132 -104 -208q0 -85 84 -108l32 -8q47 82 119 160q38 51 154 164q175 156 287 220q223 137 361 137h25q126 0 180 -107q11 -37 11 -70
q0 -190 -373 -441q-109 -66 -119 -66v-2q201 0 268 -118q18 -41 18 -92q0 -116 -111 -238q-133 -101 -280 -132q-100 -22 -186 -22q-224 0 -352 150q-72 91 -72 196v16q0 50 20 121q-93 21 -149 76q-82 83 -82 205v10q0 244 317 430q170 90 361 90zM741 606v-2q24 0 155 62
q88 49 188 130q137 129 150 157q90 114 90 167q0 25 -23 25h-9q-78 0 -303 -228q-163 -179 -248 -311zM557 216q-10 -92 56 -102q39 -14 89 -14q217 10 335 103q89 86 88 165v3q-20 79 -98 81l-20 2q-138 0 -193 -238q-20 -54 -63 -54q-46 0 -60 49q-3 6 -3 20v18
q0 147 111 248h1v2h-1q-60 -18 -149 -33q-93 -159 -93 -250z" />
    <glyph glyph-name="D" unicode="D" horiz-adv-x="1415" 
d="M975 1281h9q243 0 411 -134q86 50 130 50q53 -10 53 -53t-91 -79q0 -3 -9 -5v-1q137 -153 147 -343q30 -252 -114 -466q-46 -81 -127 -139q-183 -119 -383 -119q-131 0 -247 53q-144 -58 -280 -58q-232 2 -284 112q-8 22 -8 41v3q0 102 157 132q37 5 69 5h14
q101 0 279 -60q90 101 168 251l136 255q68 120 204 269l80 76q-109 90 -288 90h-12q-250 0 -433 -197q-63 -78 -90 -119q-63 -121 -63 -202q0 -74 77 -100q18 -5 47 -6q161 0 284 183q72 110 78 216l-2 44q0 47 41 68l14 4h9q41 0 57 -53l4 -20v-18q0 -269 -232 -468
q-124 -94 -261 -101q-222 -33 -326 138q-32 84 -12 166q10 266 370 472q220 113 424 113zM1392 962q-55 -107 -122 -347q-49 -157 -106 -249q-92 -140 -220 -225q0 -5 48 -12l21 -1h14q178 0 322 200q121 162 121 386q-10 134 -77 248h-1zM371 137q41 -31 113 -31h20
q45 0 90 16q-13 9 -72 21q-37 8 -77 8h-16q-51 -2 -58 -14z" />
    <glyph glyph-name="E" unicode="E" horiz-adv-x="1017" 
d="M1059 1283h12q214 0 310 -148q30 -59 30 -110v-24q0 -129 -129 -215q-59 -30 -114 -30h-13q-95 0 -149 92q-18 37 -18 76q0 110 127 187q32 13 60 13q59 -10 59 -54v-2q0 -27 -46 -62q-53 -47 -53 -83v-13q0 -35 30 -35h12q57 0 100 76q14 29 14 59q0 95 -94 133
q-27 10 -67 10h-1q-121 0 -228 -149q-50 -74 -50 -162l3 -30h35q168 -3 210 -84q5 -17 7 -33q0 -63 -88 -89l-29 -2q-96 0 -208 64q-164 -59 -259 -221q-51 -92 -51 -189v-3q10 -96 90 -117q37 -10 68 -10h28q184 0 318 140q48 59 48 118v14q-2 37 -53 53h-13
q-86 0 -162 -132q-19 -38 -35 -128q-24 -47 -61 -47q-47 0 -67 50q-6 23 -6 49v24q0 150 126 254q79 59 170 59h13q135 0 202 -119q19 -44 19 -87v-15q0 -162 -205 -293q-136 -81 -312 -81q-265 0 -405 180q-56 82 -56 179v7q0 272 364 399q46 14 107 27q-58 77 -58 163
q0 175 231 292q112 49 237 49z" />
    <glyph glyph-name="F" unicode="F" horiz-adv-x="1218" 
d="M1140 1283h7q136 0 372 -61q72 -15 95 -15q39 0 108 35l18 3q44 0 52 -56q0 -73 -140 -152q-69 -36 -131 -36h-17q-40 0 -124 24l2 -15q0 -13 -37 -77q-33 -64 -69 -192l-25 -119h7q28 80 45 106q45 104 124 104q66 0 84 -75l1 -21q0 -94 -119 -176q-33 -125 -19 -247
q-17 -22 -46 -28q-52 -13 -115 -3l-22 5q-24 16 -49 46q-118 -201 -339 -289q-147 -57 -330 -57q-280 0 -370 154q-25 48 -25 99v8q0 146 159 222q41 17 76 17h20q109 0 168 -91q7 -29 7 -52q0 -99 -132 -123q-11 0 -56 -14v-4q31 -30 78 -42q51 -11 95 -11q256 0 335 234
q14 24 28 53h-3q-67 -25 -119 -57q-108 -70 -130 -70q-55 9 -55 54v4q0 67 188 152v1h-1q-58 -21 -119 -21h-15q-143 0 -210 123q-21 47 -21 96v14q0 166 225 352q272 198 544 198zM891 1113v-2q71 0 94 -152l2 -35v-34q0 -166 -128 -294q-56 -47 -88 -60v-1h1q57 24 144 44
q38 99 104 202q44 73 164 202q68 62 96 74v2q-182 65 -293 65h-2q-45 0 -94 -11zM490 725q0 -70 53 -87l16 -1h8q95 0 204 150q65 97 65 213l-4 52q0 29 27 48v1h-1q-110 -39 -227 -142q-141 -126 -141 -234z" />
    <glyph glyph-name="G" unicode="G" horiz-adv-x="1036" 
d="M1064 1282h8q129 0 192 -106q16 -40 16 -71v-21q0 -116 -161 -291q-122 -118 -204 -168q-107 -72 -241 -113l-8 -1q22 -14 79 -14q156 0 340 177q90 65 121 65h7q40 0 51 -43v-3q0 -27 -25 -57q-40 -71 -6 -135q-46 -202 -164 -311q-105 -120 -269 -179
q-105 -29 -205 -29h-34q-245 0 -353 137q-38 58 -38 127q0 122 122 183q40 15 79 15h9q102 0 163 -82q6 -22 6 -34v-17q8 -69 -105 -105q-57 -13 -62 -20v-2q50 -37 162 -37q140 0 267 139q24 31 70 105h-1q-57 -12 -100 -12h-17q-176 0 -276 107l-58 -4q-218 0 -338 159
q-53 76 -53 172v7q0 194 203 340q68 42 141 71q92 31 132 31q25 0 50 -24q14 -20 14 -34q0 -49 -97 -77q-70 -28 -151 -105q-122 -143 -122 -259q0 -112 134 -156q35 -9 69 -9h13v2q-19 64 -19 122q0 324 460 517q119 43 199 43zM634 626h2q146 43 302 172q105 94 141 145
q81 109 81 162q0 50 -45 57h-15q-77 0 -233 -159q-171 -197 -230 -361z" />
    <glyph glyph-name="H" unicode="H" horiz-adv-x="1495" 
d="M1894 1274h6q131 -6 170 -113q8 -21 8 -45v-14q0 -169 -345 -374q-117 -62 -261 -118q-99 -181 -186 -378l-23 -44q59 20 259 204q99 78 150 91l28 5q79 -53 100 -91l4 -18q0 -31 -46 -51q-55 -33 -146 -117q-237 -246 -388 -216q-104 0 -169 136q-22 59 -22 125
q0 87 65 243h-2q-25 -3 -25 -17q-63 -161 -191 -300q-209 -207 -490 -207q-235 0 -331 141q-32 52 -32 114v8q-4 132 126 205q49 27 107 27q103 0 149 -98q7 -28 7 -48v-10q0 -82 -109 -120q-71 -14 -83 -25q18 -26 74 -43q27 -7 59 -7h19q176 0 280 225q2 1 12 24h-1
q-108 -61 -141 -61q-39 0 -54 40l-3 17q0 69 209 142l80 31q37 74 143 215h-2q-90 -46 -138 -46q-82 0 -121 77q-5 22 -5 33v12q0 46 56 119v2q-48 -25 -208 -189q-47 -51 -78 -51h-3q-59 10 -59 60q0 35 91 120q220 223 357 223q96 0 140 -84q9 -26 9 -53q0 -26 -11 -61
q85 57 232 168q148 106 178 106h4q56 -10 56 -56v-8q0 -20 -56 -80q-87 -109 -146 -232q-33 -72 -73 -181h3q49 12 49 17q86 138 241 317q288 309 477 309zM1563 787h1q100 47 220 150q121 116 121 186q0 24 -12 24l-13 2q-108 0 -281 -291z" />
    <glyph glyph-name="I" unicode="I" horiz-adv-x="1115" 
d="M1556 1281h10q47 0 65 -41l3 -16q0 -36 -40 -53q-20 -7 -58 -7q-86 -29 -203 -223q-109 -193 -240 -473h1q97 -3 148 62q19 28 33 175q13 67 67 75h3q47 -18 50 -65l4 -29q18 -246 -150 -332q-123 -48 -205 -38q-35 -3 -35 -15q-87 -164 -347 -266q-135 -48 -275 -48
q-221 0 -328 142q-32 55 -32 111v5q0 117 116 197q53 30 104 30h18q79 0 119 -68q19 -32 19 -70v-13q0 -86 -95 -117q-79 -17 -91 -25q14 -24 73 -49q43 -12 79 -12h10q208 0 329 245l-2 1q-132 38 -190 122q-59 79 -59 181q0 263 392 457q354 157 707 157zM725 652
q10 -59 96 -84l22 -5q102 229 245 426q41 57 143 156l32 29h-1q-171 -46 -339 -190q-198 -187 -198 -332z" />
    <glyph glyph-name="J" unicode="J" horiz-adv-x="895" 
d="M1344 1280h8q58 0 75 -42l1 -15v-1q0 -34 -38 -48l-103 -31q-65 -25 -115 -106q-82 -135 -228 -468l-131 -275q152 -1 201 -42q62 -40 80 -134q8 -213 -318 -334q-126 -35 -221 -35h-6q-54 0 -68 53v4q-142 -133 -245 -199q-224 -146 -368 -146q-154 0 -207 126
q-13 44 -13 93q0 232 369 447q96 50 185 79q109 37 231 58q40 5 40 13q9 11 61 106v1q-37 -12 -84 -12q-136 0 -208 125q-29 59 -29 126q0 216 266 402q129 89 323 160q280 95 542 95zM437 596v-5q0 -53 60 -53q13 0 72 15h7q26 0 42 -26h3q126 237 269 435q35 50 136 149
q2 0 6 5h-4q-196 -54 -375 -198q-110 -103 -126 -136q-90 -118 -90 -186zM714 123q-36 -82 -107 -178l-50 -59v-2q68 10 96 10q65 12 113 41q80 53 76 142q2 49 -54 56q-29 8 -74 -10zM-170 -342q0 -50 56 -50q143 0 350 297q75 100 141 204h-4q-88 -20 -163 -59
q-66 -34 -138 -88q-50 -36 -125 -111q-117 -131 -117 -193z" />
    <glyph glyph-name="K" unicode="K" horiz-adv-x="1541" 
d="M1947 1269h3q41 0 56 -45v-12q0 -43 -78 -64q-47 -21 -121 -92q-55 -67 -114 -169q-155 -235 -308 -292q37 -75 37 -162v-17q0 -74 -63 -203q49 31 225 218q73 70 146 70q55 -6 98 -48q5 -5 17 -16v-9q0 -28 -50 -51q-40 -20 -123 -114l-11 -12q-240 -274 -374 -274h-5
q-87 10 -139 64q-51 54 -51 134q0 92 103 265q39 80 39 103v2q-23 -5 -49 -5q-33 0 -56 17q-103 -233 -182 -319q-62 -70 -105 -101q-215 -169 -465 -169q-234 0 -342 139q-35 51 -35 111v5q0 128 120 213q47 20 115 20q101 0 150 -76q14 -32 14 -61q0 -94 -85 -128
q-27 -8 -98 -15q0 -3 -8 -3l10 -8q20 -26 55 -39q46 -19 101 -19h1q142 0 235 137q85 112 183 303l124 191h-2q-86 -46 -140 -46h-3q-110 0 -139 99l-4 29q0 42 42 97h-2q-39 -18 -192 -167q-44 -44 -82 -44q-41 0 -56 41v16q0 36 106 128q200 190 342 190q97 0 132 -77
q8 -19 8 -43q0 -45 -30 -97h2q111 59 365 272q99 88 134 88h6q43 0 49 -50q0 -30 -64 -88q-54 -65 -82 -118q-49 -84 -124 -284h2l81 -8h8q51 0 142 152q55 105 145 208q117 116 219 167q114 66 167 66z" />
    <glyph glyph-name="L" unicode="L" horiz-adv-x="1073" 
d="M1314 1283h8q131 0 186 -117q15 -40 15 -81q0 -195 -269 -404q-103 -76 -200 -120l-126 -38q-51 -87 -108 -160q-42 -51 -128 -143l-56 -32q21 -3 45 -3h20q108 -9 385 259q86 78 155 78h6q46 0 108 -75q6 -12 16 -33q0 -29 -50 -54q-53 -34 -203 -180
q-212 -190 -364 -190h-14q-104 10 -215 70q-157 -73 -330 -73q-186 0 -256 101q-17 31 -17 61v5q0 105 157 147q42 7 83 7h1q107 0 283 -74q69 91 111 178q24 52 24 58h-1q-50 1 -151 41q-190 101 -190 283v19q0 169 169 308q199 160 506 160q116 0 128 -43q7 -12 7 -27
q0 -46 -63 -57l-28 4q-341 0 -495 -280q-34 -66 -34 -117v-20q0 -114 131 -152q37 -8 73 -8q71 165 185 332q45 72 170 202q179 168 326 168zM1049 739q60 28 132 96q65 67 87 107q49 78 49 120q-3 32 -19 32q-4 2 -15 2q-97 0 -207 -276q-27 -73 -27 -81z" />
    <glyph glyph-name="M" unicode="M" horiz-adv-x="1563" 
d="M1267 1281h6q46 0 64 -51l2 -13q0 -53 -137 -354l-156 -360v-2h2q122 199 315 447q101 128 222 252q86 81 135 81h6q42 0 61 -43l3 -12v-12q0 -16 -152 -342q-156 -275 -285 -593l-23 -91q52 41 233 214q77 80 147 80h2q116 -40 116 -89q0 -30 -39 -47q-50 -30 -75 -57
q-184 -186 -212 -201q-129 -111 -208 -111q-115 10 -168 123q-20 49 -20 107q0 128 92 306v2h-1q-93 -142 -161 -263q-63 -125 -129 -210q-47 -51 -87 -51h-9q-81 0 -124 112q-16 47 -16 98v13q0 107 139 363v2h-2q-168 -260 -251 -370q-177 -222 -324 -222q-141 0 -210 118
q-23 44 -23 94v11q15 161 135 239q44 20 82 20h20q87 0 122 -83q5 -23 5 -39v-17q0 -107 -157 -131q-40 -12 -40 -29v-1q21 -27 68 -27q104 0 325 319q154 245 380 510q96 122 209 236q75 74 118 74z" />
    <glyph glyph-name="N" unicode="N" horiz-adv-x="1341" 
d="M1277 1297h3q42 0 59 -49l1 -16v-6l-22 -90q-22 -119 -22 -287q0 -178 -10 -420q51 111 76 163q104 314 208 463q76 103 143 103q42 0 85 -56q44 -65 44 -82v-3q-13 -109 -123 -140q-55 -24 -65 -49q-75 -206 -201 -505l-103 -201l10 -69v-1q0 -34 -74 -60
q-163 -81 -176 -81h-11q-28 0 -41 36q-49 315 -49 548v22q0 181 23 302v1h-2q-83 -169 -200 -420q-74 -135 -174 -255q-219 -247 -452 -247q-201 11 -276 164q-16 48 -16 91v8q0 130 121 224q46 22 103 27h17q101 0 151 -78q16 -29 16 -62v-12q0 -83 -119 -125
q-84 -19 -106 -27l-3 -5v-5q0 -12 31 -30q30 -18 68 -18h3q164 0 356 234q109 154 209 340q155 309 242 425q28 51 162 186q70 62 114 62z" />
    <glyph glyph-name="O" unicode="O" horiz-adv-x="1000" 
d="M1176 1284h8q163 0 224 -117q19 -38 19 -83v-8q0 -83 -45 -102q-10 -5 -23 -5h-4q-47 0 -53 60v1l6 48q0 58 -63 82q-23 6 -43 6h-22q-163 0 -373 -222q-88 -101 -139 -181q-245 -383 -255 -555v-17q0 -71 66 -71h5q143 0 347 171q130 140 206 273q122 253 122 359v8
q0 45 -28 30h-5q-109 0 -284 -247q-131 -194 -202 -413q-29 -117 -45 -117q-13 -16 -35 -16q-39 0 -55 44l-4 30q0 85 100 305q70 145 180 292q189 236 350 236h10q105 0 157 -116q16 -48 16 -93q-16 -294 -196 -530q-305 -350 -636 -350h-9q-190 0 -285 178q-40 82 -40 182
v11q0 305 372 625q205 158 314 205q196 97 342 97z" />
    <glyph glyph-name="P" unicode="P" horiz-adv-x="1205" 
d="M1072 1165h13q172 0 302 -66q108 38 169 38h8q56 -9 56 -53v-4q0 -47 -100 -60h-2v-1q73 -93 73 -211q-10 -278 -228 -377q-75 -31 -169 -52q-74 -16 -159 -22q-74 -224 -308 -374q-185 -112 -396 -112q-224 0 -317 139q-30 51 -30 109v10q0 146 142 210q42 18 85 18h10
q98 0 138 -92q8 -30 8 -50q0 -84 -85 -117l-91 -25l-3 -3q21 -35 97 -56l40 -4h19q212 0 369 345q3 0 3 7h-1q-45 -8 -123 -31l-8 -2q-43 0 -61 45l-2 10l5 20h-1l-64 -4q-181 0 -249 134q-17 43 -17 86q0 168 204 329q309 216 673 216zM315 625v-7q0 -60 58 -76l32 -3
q115 0 258 155q63 77 91 139q22 49 40 129q19 51 54 51q57 0 66 -76l1 -43v-21q0 -116 -42 -215v0h2q150 239 364 370q-71 17 -154 17h-13q-279 0 -547 -157q-210 -137 -210 -263zM1121 542q148 31 227 161q53 92 39 188q-10 46 -26 68q-58 -40 -99 -104q-74 -121 -143 -313
h2z" />
    <glyph glyph-name="Q" unicode="Q" horiz-adv-x="1165" 
d="M960 1281h8q253 0 355 -198q29 -71 29 -143v-8q0 -193 -217 -423q-135 -135 -208 -186q-77 -57 -137 -105q53 -1 94 -1q129 0 314 178q74 67 141 67h11q49 0 98 -85l2 -11q0 -32 -47 -53q-55 -36 -60 -37q-167 -169 -188 -170q-192 -118 -350 -118h-20q-99 -10 -268 82
q-181 -85 -315 -85q-151 0 -193 104q-6 26 -6 45v5q0 102 137 154q66 24 150 24h26q111 0 295 -44q192 206 258 314q182 272 182 464q0 87 -56 103q-18 6 -41 6h-9q-130 -12 -329 -130q-57 -35 -155 -131q-149 -151 -149 -264v-2q0 -106 96 -106h16q116 0 252 215
q74 130 69 219v75q0 49 46 63l15 2q72 0 89 -158l1 -45v-27q0 -225 -181 -372q-121 -92 -282 -92q-157 0 -223 112q-30 55 -30 123q0 237 352 491q230 148 428 148zM134 136v-4q0 -19 48 -26h29q55 0 134 25v1q-96 33 -155 33q-46 0 -56 -29z" />
    <glyph glyph-name="R" unicode="R" horiz-adv-x="1631" 
d="M1276 1281h19q152 0 278 -39q82 22 123 22q46 0 64 -44l1 -14v-7q0 -14 -15 -32q127 -88 127 -211q0 -200 -294 -322q-63 -23 -98 -32q51 -71 51 -173q-20 -77 -91 -209h2q4 1 241 239q110 100 181 100h2q42 0 118 -75q6 -13 6 -23q0 -31 -47 -52q-51 -35 -122 -101
q0 -3 -161 -167q-115 -117 -147 -131q-80 -32 -155 -22q-140 4 -185 123q-12 38 -12 70q0 106 116 289q41 79 41 103h-6q-48 0 -85 12v-1q-85 -188 -179 -314q-83 -106 -168 -154q-66 -45 -124 -67q-153 -62 -301 -62q-284 4 -355 176q-15 38 -15 79v8q-15 136 141 214
q44 16 84 16h6q113 -3 160 -84q7 -17 7 -36v-13q0 -66 -58 -110q-30 -21 -96 -21q-23 -5 -41 -13v-5q23 -29 62 -45q53 -18 104 -18q133 0 246 134q81 112 169 281q93 182 180 300q33 50 122 145q121 115 185 148q18 11 22 11l-4 4l-77 3h-23q-174 0 -366 -53v-2
q51 0 66 -74q4 -42 4 -81v-41q0 -196 -159 -336q-123 -101 -292 -101q-166 0 -235 127q-20 43 -20 88v11q0 145 168 300q95 79 174 121q318 161 661 161zM1283 713l84 -22q85 0 190 152q54 82 54 175q0 70 -47 91q-137 -63 -248 -316zM424 704q0 -78 94 -78q108 0 252 167
q20 47 47 105q31 88 31 127q15 65 25 65l8 8v0q-114 -38 -201 -84q-61 -34 -123 -92q-133 -131 -133 -218z" />
    <glyph glyph-name="S" unicode="S" horiz-adv-x="891" 
d="M652 1396h37q99 0 99 -61q0 -74 -123 -74q-130 0 -346 -180q-124 -132 -124 -265q30 -124 222 -124l31 6l-6 74v50q0 256 383 432q100 31 154 31h56q163 0 216 -167l7 -43q0 -200 -409 -414q186 -225 186 -408q0 -229 -229 -309l-124 -18h-55q-355 -22 -502 253l-17 64
v19q12 188 239 195q113 -15 134 -108q16 -70 -36 -101.5t-96 -7.5l-45 36q-30 -15 -20 -39q49 -97 257 -132h37q117 18 117 111l6 31q-23 155 -179 303l-105 -13q-131 0 -271 81q-118 111 -118 234v13q0 310 401 487q137 44 223 44zM739 797v-6q0 -13 18 -13q193 68 309 260
l31 67q-18 44 -56 44h-24q-120 0 -248 -223q-30 -63 -30 -129z" />
    <glyph glyph-name="T" unicode="T" horiz-adv-x="1027" 
d="M1053 1185h10q128 0 356 -54l72 -10q49 0 110 33l14 2h1q48 0 57 -58q0 -67 -121 -154q-59 -38 -127 -38q-39 0 -108 24v-2l2 -13q0 -29 -33 -86q-9 -59 -46 -292q-24 -114 -68 -194q-138 -279 -430 -386q-160 -66 -349 -66q-288 0 -372 159q-21 47 -21 97v7
q-12 138 135 221q46 16 84 16h11q88 0 138 -77q14 -28 14 -55v-13q0 -74 -70 -116q-12 -10 -89 -17q-36 -8 -36 -16q8 -23 75 -48q43 -12 86 -12h22q171 0 311 160q81 77 123 157q114 273 149 343q29 70 105 159q82 104 109 113q0 4 8 5v3q-146 50 -259 50h-2
q-65 -2 -74 -10q20 -6 43 -65q23 -76 23 -158q20 -183 -146 -305q-103 -82 -231 -82q-137 0 -210 104q-32 51 -32 113v3q0 164 209 347q250 211 557 211zM440 656q0 -56 47 -70l13 -1q98 0 203 169q41 75 41 142v5l-2 51l8 27q-46 -17 -98 -49q-49 -32 -121 -102
q-91 -100 -91 -172z" />
    <glyph glyph-name="U" unicode="U" horiz-adv-x="1671" 
d="M984 1281h10q187 0 298 -160q43 -76 43 -160q0 -150 -158 -375q-62 -91 -214 -301q-93 -136 -93 -179h14q97 0 294 254q181 244 321 496l199 336q15 17 65 17l207 23q35 0 44 -45q0 -17 -50 -95q-456 -702 -517 -788q-61 -99 -64 -135h1q31 -2 218 169q119 116 169 141
q46 33 79 33h3q49 0 62 -31q3 -6 43 -67v-2q0 -31 -44 -49q-44 -26 -72 -59q-204 -201 -260 -238q-112 -90 -219 -90q-133 10 -182 128q-8 33 -8 57v1h-4q-146 -177 -304 -177q-144 0 -197 133q-14 47 -14 97q0 167 298 542q153 202 153 286v11q0 62 -56 88q-34 14 -74 14
q-75 0 -182 -49v-1q40 0 69 -68q31 -79 31 -188q0 -224 -185 -374q-113 -86 -251 -86q-164 0 -219 151q-9 39 -9 69v7q0 229 342 504q223 160 413 160zM386 656v-13q0 -55 42 -72q5 -2 24 -4q86 0 174 126q41 59 71 152q17 65 17 109l-5 61q0 10 8 28h-1q-63 -31 -179 -136
q-151 -149 -151 -251z" />
    <glyph glyph-name="V" unicode="V" horiz-adv-x="663" 
d="M1132 1223l5 1q44 5 60 -30l3 -12q4 -36 -63 -91q-37 -54 -62 -103q-68 -151 -127 -305q-49 -147 -143 -304q-113 -168 -249 -281q-222 -167 -314 -176q-52 -5 -67 47q-2 23 31 76q36 65 48 177q2 163 16 244q27 142 97 261v2q-100 -72 -143 -88l-8 -1q-89 -9 -125 69
l-8 31q-5 46 30 112v1h-1q-34 -22 -125 -132q-81 -112 -109 -120l-15 -3q-77 13 -81 56v2q-5 42 102 159q174 202 284 213l13 2q83 8 131 -67q12 -28 14 -53q4 -35 -11 -78h2q82 58 265 231q92 100 127 103l1 1q35 3 64 -33l4 -11l2 -12q2 -19 -86 -98q-48 -93 -56 -163
q-35 -214 -64 -329q-46 -132 -111 -256v-1q97 84 164 166q136 224 235 498q173 286 270 295z" />
    <glyph glyph-name="W" unicode="W" horiz-adv-x="1601" 
d="M822 1190l8 1q165 26 283 -88q68 -69 84 -173q22 -179 -64 -311l1 -2q128 175 206 286q86 143 172 262q46 77 78 82h1q42 7 65 -36l4 -12v-1q-7 -18 -44 -140q-43 -175 -138 -556v-1h2q62 120 217 360q177 224 244 234q53 1 91 -43q25 -64 -50 -120q-114 -98 -198 -345
q-26 -187 -96 -325q-82 -147 -205 -227q-62 -27 -129 -13l-9 -1q-59 38 -86 111q-27 61 -24 114l-3 19q-7 104 20 309q-205 -240 -303 -326q-110 -106 -262 -221q-63 -49 -91 -54q-49 -7 -70 31l-6 19q-6 35 80 142q124 191 200 335q160 302 130 488q-15 94 -117 78
q-134 -21 -294 -215q-179 -218 -161 -335l1 -4q9 -58 60 -74h19l9 1q54 9 148 148q106 180 61 304l-12 45l-1 4q21 64 44 67h1q64 10 105 -122q8 -30 13 -63l6 -36q25 -157 -82 -311q-101 -132 -253 -157q-148 -23 -228 93q-20 37 -26 76l-1 7q-29 183 203 451
q206 214 397 245z" />
    <glyph glyph-name="X" unicode="X" horiz-adv-x="1272" 
d="M927 1281h10q209 0 309 -173q38 -83 38 -137h2q145 223 295 223q99 0 147 -81q14 -28 14 -56q0 -82 -98 -127q-28 -11 -56 -11h-7q-81 0 -122 73v2q-74 -85 -122 -174q-103 -180 -213 -355q-93 -205 -103 -269l3 -18h2q25 -6 198 188q151 166 231 166h13q43 0 96 -81
l1 -10v-10q0 -27 -52 -51q-51 -33 -74 -60q-86 -85 -208 -219q-110 -109 -183 -109q-130 3 -163 108q-6 24 -6 51q0 47 23 119q-281 -283 -540 -283q-178 0 -268 129q-28 49 -28 101v3q0 114 117 177q37 18 81 18h7q101 0 155 -71q10 -29 10 -49v-8q0 -88 -99 -124l-43 -5
l-43 5q38 -27 94 -27h13q136 0 336 192q83 101 152 208q111 180 167 344q31 96 31 159v5q0 84 -57 105q-30 9 -63 9q-168 0 -423 -253q-134 -146 -134 -267q0 -59 48 -82q18 -7 38 -7q114 0 244 207q81 160 81 246v35q0 48 45 64l13 4q73 0 91 -166l3 -43q0 -253 -221 -419
q-100 -63 -213 -63q-172 0 -237 147q-15 43 -15 91q0 235 340 497q192 132 343 132z" />
    <glyph glyph-name="Y" unicode="Y" horiz-adv-x="1199" 
d="M785 1163h11q168 0 252 -142q28 -59 28 -122q0 -113 -111 -268l-134 -183q-20 -35 -20 -43q62 0 260 202l99 109q80 99 337 348q75 62 78 62q32 22 61 24q44 0 58 -42l1 -15q0 -30 -89 -108q-70 -72 -107 -150q-78 -141 -157 -435q-82 -209 -184 -305q-64 -76 -127 -105
q-210 -121 -448 -121q-257 0 -347 156q-23 48 -23 96v11q0 125 120 206q42 30 90 46h7q112 7 161 -81q7 -17 10 -51q0 -85 -79 -129q-26 -6 -95 -15l-23 -10q0 -24 81 -55q27 -8 84 -11q129 0 245 81q68 79 116 188l23 40v1h-1q-89 -54 -179 -54q-126 0 -175 114
q-15 36 -15 68v23q0 116 126 281q99 129 127 179q15 27 15 42q0 33 -55 41l-23 2q-65 0 -165 -44v-1h2l9 1q42 0 59 -50l4 -52q0 -230 -197 -378q-88 -53 -168 -53h-26q-97 0 -151 82q-18 38 -18 75v5q0 187 264 388q219 152 389 152zM258 623q0 -41 32 -41l12 -1
q91 0 197 159q41 71 61 160q0 20 20 67l13 13h-2q-92 -43 -214 -152q-119 -122 -119 -205z" />
    <glyph glyph-name="Z" unicode="Z" horiz-adv-x="1056" 
d="M550 1280h18q188 0 421 -223l24 -17q24 73 70 144q66 86 136 86h18q81 0 113 -101l3 -41q0 -152 -202 -270q-13 0 -31 -48q-61 -116 -164 -249q-63 -71 -110 -116q51 -59 45 -82l8 -19q92 1 182 63q125 116 198 149h8q84 -20 116 -91l2 -18q0 -47 -96 -155
q-62 -78 -210 -160q-105 -61 -186 -51q-149 -309 -537 -544q-183 -104 -317 -104q-172 0 -245 148q-13 42 -13 81v13q0 298 584 490l163 38q40 31 60 83q-118 -19 -207 -19h-19q-119 0 -160 94q-5 13 -5 25q0 126 200 185q46 9 83 9h42q65 0 147 -28q132 126 146 154
q38 49 78 114v2h-2q-97 97 -243 204q-108 59 -216 24q-149 -66 -199 -230q-11 -40 -11 -88l9 -114q0 -53 -76 -80l-19 -1q-81 0 -98 117q-4 23 -4 63v32q0 266 221 442q129 89 275 89zM30 -318v-2q7 -38 53 -38q304 51 435 348l-128 -45q-92 -37 -184 -87
q-176 -100 -176 -176z" />
    <glyph glyph-name="bracketleft" unicode="[" horiz-adv-x="1600" 
d="M1161 1148h8q163 0 277 -118q104 -122 104 -279v-35q0 -134 -75 -309q-71 -150 -267 -227q-126 -41 -255 -41l-1 1q-139 -150 -291 -150q-110 0 -167 85q-24 37 -27 75q-148 -163 -264 -163h-15q-84 0 -128 80q-18 33 -18 79v3q0 49 43 142q-45 14 -45 57v3q0 37 77 96
q150 142 150 149q12 13 43 23l214 12q35 -60 35 -64q-254 -400 -254 -405h2q112 113 154 175q85 114 180 264q26 18 45 18l213 12l37 -55q55 55 119 55h1q90 0 109 -100l1 -22q0 -129 -148 -295l5 -2q78 0 235 135q38 45 72 94q68 112 68 223q0 113 -70 226q-69 86 -167 86
h-7q-130 0 -154 -115l-4 -22q0 -66 79 -90q18 -6 40 -6q37 0 78 20h9q17 0 21 -25q0 -49 -103 -62l-26 -2h-11q-138 0 -187 117q-13 46 -13 92q0 192 205 254q39 11 73 11zM820 371q-112 -194 -139 -262h1q65 0 167 95q-33 52 -33 103q0 32 5 62v2h-1z" />
    <glyph glyph-name="backslash" unicode="\" horiz-adv-x="1200" 
d="M811 1080h9q120 0 255 -100q92 -88 118 -165q35 -91 35 -177v-6l2 -13l-2 -13v-8q0 -209 -170 -478q-53 -73 -133 -129q-155 -97 -346 -97h-11l-159 -265q-176 -245 -398 -245q-150 0 -205 139q-6 31 -6 49v10q0 202 376 366v2q-42 13 -78 65q-24 45 -24 89v23
q0 75 56 186h-2q-19 -11 -35 -11q-46 10 -46 22q-14 10 -14 39q0 45 180 204q72 62 137 62q84 0 126 -100q13 -35 13 -79q0 -93 -95 -250v-1q118 132 171 217q4 0 77 116q-14 0 -77 37q-84 61 -84 179q0 139 90 240q101 92 240 92zM605 717v-3q0 -72 94 -109q11 13 83 13
q40 4 143 9q8 0 44 -65v-1q-62 -110 -340 -567h2q55 22 133 74q273 205 273 453v24q0 132 -67 237q-77 96 -199 96q-121 0 -161 -125q-5 -20 -5 -36zM-34 -453v-2q0 -30 27 -30h11q98 0 263 320l2 2h-4q-299 -142 -299 -290z" />
    <glyph glyph-name="bracketright" unicode="]" horiz-adv-x="1157" 
d="M740 1156h12q111 0 243 -90q162 -138 162 -358v-12q0 -217 -155 -470q-101 -148 -288 -211q-90 -27 -181 -27h-38q-145 0 -195 54q-27 25 -45 72h-2q-75 -126 -184 -126q-79 0 -109 80q-5 15 -5 34v6q0 82 75 111q19 6 40 6q48 0 85 -36q42 52 76 144q17 59 17 70h-2
q-74 -76 -109 -76h-4q-52 11 -52 51v3q0 34 60 89q139 157 217 157q76 0 110 -87h2q34 59 95 84v2q-147 51 -147 199v11q0 205 176 289q72 31 146 31zM540 806v-10q0 -71 96 -106q20 -6 33 -6h31q20 0 52 11q22 0 26 -29v-1q0 -34 -58 -52l-24 -4q47 -35 47 -96
q0 -76 -75 -105q-16 -5 -38 -6q-47 0 -85 34q-27 -51 -56 -184q-11 -42 -11 -72q0 -69 37 -92q4 -4 28 -7q75 7 228 132q201 184 201 399v3q0 160 -81 266q-72 79 -189 79q-123 0 -159 -129z" />
    <glyph glyph-name="asciicircum" unicode="^" horiz-adv-x="1400" 
d="M740 1102q9 0 47 -65v-1l-6 -15q91 77 227 77q154 0 296 -137q115 -126 115 -310v-2q0 -261 -231 -544q-161 -172 -431 -172q-69 0 -186 18q-59 0 -122 62q-50 55 -50 134q0 111 137 267l19 25q-72 -61 -112 -112q-72 -92 -120 -183q-370 -669 -381 -683q-28 -22 -40 -22
l-185 -19q-8 0 -47 62v6q8 22 279 517l147 275h-2q-31 0 -50 45l-3 21q0 37 104 133l61 66q57 64 97 143l213 376q31 20 39 20zM796 744q0 -79 111 -121q33 -4 55 -4h9l18 3h12q18 0 23 -28q0 -35 -56 -49l-39 -4q-28 0 -87 16q18 -39 18 -88q0 -140 -159 -325
q-25 -35 -25 -49v-1q25 -20 79 -20q116 0 267 106q195 170 195 399q0 237 -165 303q-52 18 -97 18q-112 0 -156 -130zM676 823l-107 -209h2q68 37 117 37h18v3q-33 51 -33 115l5 52v2h-2z" />
    <glyph glyph-name="underscore" unicode="_" horiz-adv-x="1360" 
d="M954 1174h6q99 0 209 -68q25 -16 55 -42q33 -31 38 -39q28 -35 40 -58q60 -104 60 -235q0 -193 -129 -412q-32 -52 -60 -90q-13 -16 -39 -43q-30 -29 -55 -46q-34 -26 -72 -47q-57 -32 -133 -58q-119 -39 -231 -39h-6q-27 0 -68 4q-57 0 -102 35q-16 16 -21 22
q-21 27 -29 67l-1 8q-23 -27 -47 -51q-32 -30 -48 -40q-63 -41 -126 -41q-67 0 -112 49q-35 42 -35 106q0 57 40 141v0q-13 3 -25 14q-13 13 -16 26q-2 5 -2 8v2q0 34 33 65q10 8 43 38q80 76 107 103q49 52 53 55q26 11 28 11l193 14l38 -62l-160 -276q-5 -8 -40 -68v0
q71 81 119 150q79 106 150 217q4 8 16 14q19 11 21 11l146 29v0q-73 23 -113 69q-45 55 -45 135q0 59 23 127q34 94 112 144q24 15 44 23q71 28 141 28zM752 828v-3q0 -43 37 -77q30 -26 63 -36q21 -7 54 -7h8q19 0 33 7h7q18 0 25 -17q2 -4 2 -8v-2q0 -21 -27 -39
q-14 -6 -32 -10q-6 -1 -20 -3q5 -10 5 -21v-4q0 -25 -26 -73q-49 -94 -154 -276q-37 -64 -56 -101q-5 -15 -5 -24q0 -15 13 -18q4 -1 14 -2q38 0 118 37q45 21 98 57q33 22 76 59q188 168 188 384q0 70 -21 145q-11 36 -24 61q-43 78 -123 107q-48 17 -92 17
q-103 0 -147 -97q-14 -31 -14 -56z" />
    <glyph glyph-name="grave" unicode="`" 
 />
    <glyph glyph-name="a" unicode="a" horiz-adv-x="888" 
d="M496 632h7q83 0 135 -50h2q6 21 24 33q0 5 206 17q20 0 35 -29v-12v-5q0 -10 -55 -116l-172 -293h1q64 57 249 234q71 89 135 89q49 -8 49 -19q62 -52 62 -67q0 -29 -44 -50q-47 -25 -216 -216q-189 -191 -308 -191q-110 10 -151 97l-6 21h-1q-135 -87 -245 -87
q-127 0 -186 114q-17 38 -17 84v7q0 240 353 407q81 32 143 32zM251 149q100 22 257 246q37 59 38 81q0 24 -28 24q-19 0 -74 -59q-74 -82 -132 -169q-56 -83 -61 -123z" />
    <glyph glyph-name="b" unicode="b" horiz-adv-x="800" 
d="M894 1216q31 0 41 -45q0 -18 -53 -94l-260 -418v-2h2q43 30 84 30h14q69 0 99 -78q8 -31 8 -71v-9q0 -105 -86 -195v-2q43 22 207 174q96 78 138 78h4q44 0 109 -71l3 -13v-7q0 -26 -43 -49q-70 -51 -204 -176q-163 -141 -290 -141l-43 13q-191 -138 -347 -138
q-114 0 -161 98q-15 36 -15 81q0 53 39 147h-6q-59 9 -59 57v7q0 29 88 108q181 178 184 204l307 477q13 19 76 19q78 9 164 16zM340 166q65 11 171 95v2q-33 50 -33 117q1 33 5 54q-74 -120 -143 -268z" />
    <glyph glyph-name="c" unicode="c" horiz-adv-x="645" 
d="M464 642h12q142 -10 174 -121l3 -35v-4q0 -84 -87 -122q-20 -6 -36 -6h-9q-67 0 -100 63q-5 11 -5 19h-2q-69 -87 -121 -190q-34 -74 -35.5 -84.5t1 -17t11.5 -8.5q43 -20 271 143q190 162 207 161q44 33 84 33q50 0 111 -75l2 -10q0 -30 -45 -49q-52 -31 -178 -127
q-295 -258 -468 -258q-155 10 -237 159q-17 45 -17 94v5q0 209 264 372q115 58 200 58z" />
    <glyph glyph-name="d" unicode="d" horiz-adv-x="953" 
d="M1243 1201q32 0 41 -45q0 -15 -40 -79q-448 -774 -495 -847l-25 -57q34 11 106 75q246 238 265 237q45 29 70 29q115 -46 115 -84v-9q0 -27 -49 -50q-56 -34 -117 -107q-203 -198 -242 -217q-118 -90 -206 -90q-129 10 -193 128l-4 22h-2q-124 -118 -232 -118h-17
q-112 0 -177 101q-27 50 -27 108v6q0 257 370 434q90 34 150 34h21q84 0 141 -55q308 541 317 551q17 15 69 15q83 11 161 18zM269 158h1q85 15 235 215q56 79 62 113q-5 24 -23 24h-3q-47 -5 -180 -185q-90 -126 -92 -167z" />
    <glyph glyph-name="e" unicode="e" horiz-adv-x="664" 
d="M490 632h9q114 0 150 -105q7 -21 7 -48q0 -156 -260 -258q-55 -19 -131 -34q-25 -41 -25 -51h13q111 0 243 104q83 64 257 212q109 90 152 90h2q79 -25 109 -80l2 -4q0 -30 -42 -48q-50 -30 -226 -195q-223 -194 -310 -223q-81 -35 -173 -25q-163 0 -250 155
q-17 43 -17 87v7q0 193 286 356q120 60 204 60zM322 318v0q46 13 126 88q47 55 47 94v4l-2 7q-44 -13 -121 -112q-25 -34 -50 -81z" />
    <glyph glyph-name="f" unicode="f" horiz-adv-x="716" 
d="M950 1247h9q118 0 156 -99q8 -25 8 -45v-12q0 -147 -248 -377q-110 -97 -192 -152l-149 -93l-218 -332v-1q104 12 256 113q64 47 262 234q90 82 132 82l8 2q84 -36 113 -71q5 -12 5 -21q0 -31 -52 -54q-49 -30 -156 -145q-154 -154 -215 -191q-201 -161 -425 -171h-27
q-5 -5 -269 -426q-30 -57 -53 -57l-209 -25q-42 11 -42 42v3q0 20 34 69l333 559q-31 15 -34 77q0 69 67 102q56 30 45 31q-13 6 -16 53v18l5 20l11 20q20 26 63 53q155 140 176 176q105 137 181 255q83 117 177 220q138 143 264 143zM660 758q276 180 289 309q0 8 -4 10
q-61 6 -211 -203q-43 -65 -74 -116z" />
    <glyph glyph-name="g" unicode="g" horiz-adv-x="974" 
d="M522 632h8q90 0 146 -56q22 41 51 41l199 15q39 -9 39 -40v-5q0 -18 -36 -75l-197 -324v-1q72 45 170 123q147 123 206 169q64 48 102 48q41 0 108 -63q8 -13 8 -26q0 -28 -48 -53q-84 -64 -256 -215q-141 -124 -231 -169q-58 -37 -172 -53q-3 0 -28 -47
q-94 -149 -235 -321q-176 -195 -361 -195q-146 0 -210 114q-15 34 -15 68v5q0 214 402 375v1q-38 0 -97 38q-83 67 -83 167v18q0 217 313 398q120 63 217 63zM235 101h1q95 6 236 180q54 96 58 128q0 23 -26 23q-72 -22 -197 -186q-69 -109 -72 -145zM-22 -404
q-3 -38 42 -43h4q93 -9 289 281h-2q-86 -25 -175 -73q-150 -87 -158 -165z" />
    <glyph glyph-name="h" unicode="h" horiz-adv-x="944" 
d="M795 1200q39 -10 39 -40v-9q0 -12 -50 -99l-295 -480q167 99 259 99h6q112 0 149 -131q7 -32 7 -62q-7 -101 -137 -245q29 12 200 172q132 120 190 120h2q54 -8 104 -60q12 -12 12 -30q0 -30 -43 -49q-49 -25 -242 -214q-226 -214 -332 -214h-16q-99 30 -151 110
q-25 46 -25 99v18q0 102 4 120h-2q-69 -53 -160 -176q-83 -115 -94 -123q0 -9 -145 -13q-45 -5 -91 -5q-36 12 -36 40v7q0 14 66 127l96 137q-19 -18 -58 -47q-54 -24 -85 15t2 69q40 50 64 78t127 155q74 82 118 149l293 448q19 17 70 17q134 17 154 17z" />
    <glyph glyph-name="i" unicode="i" horiz-adv-x="554" 
d="M493 927h4q53 0 88 -37q30 -33 30 -82q0 -65 -55 -111q9 0 20 -9q12 -12 12 -27v-2q0 -11 -8 -24l-98 -180q-80 -144 -88 -159q-30 -54 -39 -87l24 9q40 32 80 60q143 144 175 175q94 90 90 90q75 63 119 63q6 0 26 -4q14 0 77 -54q7 -10 7 -23q0 -24 -27 -37
q-20 -12 -46 -32q-28 -23 -82 -73q-36 -45 -68 -77q-73 -79 -144 -151l-23 -23q-77 -73 -108 -97q-114 -94 -224 -84q-112 20 -157 91q-24 41 -24 98q0 65 85 195h-1q-6 -2 -12 -2h-1q-57 0 -55 24q-4 10 -4 18v2q2 19 34 58q39 42 63 67q100 110 100 111q30 33 51 57
q6 9 20 11q52 4 59 4v1v0q-5 2 -19 16q-29 33 -29 83q0 64 62 112q40 30 86 30z" />
    <glyph glyph-name="j" unicode="j" horiz-adv-x="588" 
d="M481 809h5q74 0 108 -66q10 -21 10 -48v-7q0 -84 -96 -130q-28 -7 -51 -7q-89 0 -118 81q-3 16 -3 31v15q0 67 85 118q31 13 60 13zM536 599q41 -10 41 -40v-9q0 -14 -95 -162l-150 -227h2q55 17 206 155q185 177 256 177h7q72 -20 111 -77l1 -10q0 -28 -38 -47
q-62 -45 -260 -221q-157 -136 -262 -184q-53 -27 -139 -32q-101 -153 -256 -340q-204 -221 -373 -221h-21q-94 0 -159 95q-13 29 -13 66v4q0 175 332 379q87 49 214 104l162 233h-2q-27 0 -47 38l-2 18q0 39 73 94q136 126 183 183q0 11 138 16zM-393 -439q0 -12 16 -15
q99 0 237 268h-1q-77 -40 -171 -122q-81 -76 -81 -131z" />
    <glyph glyph-name="k" unicode="k" horiz-adv-x="850" 
d="M831 1205q23 0 37 -37v-9q0 -16 -48 -98l-307 -572h2q47 0 68 38q21 25 51 70q68 78 141 78h8q95 0 140 -89q9 -25 9 -47v-6q0 -83 -91 -116l-30 -3h-8q-62 0 -83 27q-7 -14 -36 -50q53 -20 53 -109q0 -21 138 117.5t145 123.5q65 50 104 50h5q40 0 87 -53q28 -24 28 -35
q0 -32 -51 -55q-44 -25 -148 -124q-235 -242 -255 -249q-115 -96 -199 -96q-122 30 -159 122q-8 23 -8 46v8q0 69 47 134q-26 -6 -45 -6q-10 0 -32 7q-112 -204 -143 -256q-14 -15 -76 -15l-148 -10q-34 0 -43 43v5q0 12 51 100l100 178h-2q-42 0 -56 51v11q0 33 88 110
q0 4 85 86q56 65 80 117l279 482q7 13 76 16z" />
    <glyph glyph-name="l" unicode="l" horiz-adv-x="511" 
d="M806 1203q39 -10 39 -40l1 -5q0 -16 -59 -114l-471 -811l-4 -10q58 25 253 211q147 137 211 137h4q105 -30 115 -88q0 -32 -48 -53q-47 -28 -152 -129q-177 -179 -244 -232q-136 -110 -213 -110q-153 30 -196 145q-7 27 -7 54v6q0 58 40 151q-35 -1 -45 16q-7 13 -2 30
q19 33 45 68t72.5 100t72 96.5t75.5 97.5l289 447q20 15 68 15q136 18 156 18z" />
    <glyph glyph-name="m" unicode="m" horiz-adv-x="1366" 
d="M725 652h3q89 0 140 -80q24 -36 24 -61q151 141 267 141h3q111 0 155 -114q8 -30 8 -72v-20q-10 -105 -153 -256v-2q62 46 200 187q168 147 228 147h2q82 -20 112 -85v-3q0 -25 -43 -45q-50 -33 -158 -128q-203 -206 -240 -228q-88 -74 -186 -74q-126 30 -176 120
q-17 37 -17 78v2q0 103 34 152l14 27v2q-34 -24 -54 -42q-28 -15 -100 -127q-37 -56 -100 -159q-13 -14 -66 -14l-182 -9q-40 9 -40 38v9q0 13 94 159q29 63 44 93l22 46q-62 -33 -84 -56q-89 -88 -221 -265q-11 -15 -68 -15l-185 -9q-32 0 -40 41v4q0 15 47 77l159 228h-2
q-16 -8 -31 -8q-50 8 -50 50q0 35 77 102q130 137 195 137h4q80 0 112 -94l7 -29q139 155 245 155z" />
    <glyph glyph-name="n" unicode="n" horiz-adv-x="984" 
d="M772 661h7q92 0 135 -111q17 -40 17 -97v-11q0 -105 -123 -225v-1q58 49 243 218q73 59 128 88q22 9 36 9q40 0 85 -51q27 -22 27 -34q0 -29 -43 -49q-51 -29 -242 -212q-230 -228 -344 -228q-134 30 -179 145q-10 35 -10 64v13q0 114 40 137q-27 -16 -121 -106
q-78 -86 -162 -203q-9 -12 -87 -12l-189 -9q-20 0 -34 26l-3 12v2q0 22 33 61l178 256v1q-24 -15 -42 -15q-70 30 -70 67q0 40 71 102q167 182 248 182q82 0 122 -84q6 -26 6 -59v-4q164 128 273 128z" />
    <glyph glyph-name="o" unicode="o" horiz-adv-x="688" 
d="M478 636h4q142 0 192 -116q15 -41 15 -83q0 -57 -46 -108q219 214 287 214h3q82 -26 112 -81v-9q0 -26 -46 -47q-50 -33 -171 -150q-149 -147 -175 -155q-85 -59 -205 -29h-4q-116 -85 -229 -85h-19q-126 0 -192 112q-24 48 -24 103v7q0 151 183 304q170 123 315 123z
M234 155v-15h10q25 0 66 25v9q0 67 83 97q32 7 32 14q93 118 93 183v1q0 42 -24 42q-46 0 -172 -145q-94 -147 -88 -211z" />
    <glyph glyph-name="p" unicode="p" horiz-adv-x="969" 
d="M796 1110q26 0 39 -31l3 -15q0 -13 -42 -86l-170 -335q52 11 116 11h10q95 0 141 -93q18 -40 18 -85q0 -138 -155 -282l-18 -26h1q54 34 300 263q126 111 178 111q89 -26 119 -87v-7q0 -27 -50 -52q-55 -33 -286 -255q-227 -216 -339 -216q-148 6 -206 122
q-27 47 -32.5 79.5t0 78.5t77.5 111q-35 -9 -50 -23q-57 -67 -92 -127l-412 -712q-15 -17 -62 -17q-155 -17 -185 -17q-25 0 -39 37v11q0 15 83 156l373 664q-62 9 -62 62q0 37 102 126q133 134 143 170l255 432q7 15 94 18z" />
    <glyph glyph-name="q" unicode="q" horiz-adv-x="984" 
d="M520 629h7q80 0 121 -38q12 26 44 26l214 12q39 -9 39 -39l2 -6q0 -15 -63 -115l-200 -281v-2h2q86 7 207 104l177 152q104 84 147 84h3q43 0 108 -65l7 -21q0 -30 -37 -48q-76 -55 -267 -226q-157 -126 -261 -181q-40 -23 -106 -8q12 -70 12 -116q0 -150 -133 -315
q-145 -162 -288 -162q-107 0 -149 91q-13 35 -13 78q0 114 121 305l56 92h-2q-33 -7 -59 -7q-114 0 -181 105q-28 52 -28 109v7q0 176 245 366q146 99 275 99zM227 106q113 39 255 264q43 73 46 89v18q-2 22 -10 22q-59 -20 -175 -184q-97 -146 -116 -209zM498 -104
q-187 -320 -187 -329h1q151 72 177 242q11 37 11 69v18h-2z" />
    <glyph glyph-name="r" unicode="r" horiz-adv-x="638" 
d="M256 702h6q75 12 96 -44l4 -32l-1 -19l144 -21q70 -20 97 -58q20 -32 20 -59v-14q-10 -76 -164 -238v-1q72 64 207 192q139 129 200 129q104 -46 124 -91v-9q0 -26 -42 -44q-49 -29 -161 -137q-299 -308 -428 -298h-7q-142 30 -183 140q-7 28 -7 48v23q0 100 103 199
l33 36h-24q-37 -20 -124 -84q-30 -26 -54 -26q-56 10 -86 65v6q0 29 88 106q71 66 71 72q35 143 88 159z" />
    <glyph glyph-name="s" unicode="s" horiz-adv-x="597" 
d="M395 710h4q85 -2 82 -74v-7q0 -28 -47 -76q0 -5 50 -80q52 -81 32 -161v-7q53 43 175 154q100 89 155 89l29 7q56 -20 92 -85q0 -22 -33 -46q-44 -17 -170 -138q-192 -188 -248 -224q-135 -108 -279 -98h-19q-120 20 -187 96q-31 39 -31 85v4q0 78 82 113q18 5 40 7
q75 0 103 -74l5 -27v-7q16 18 36 83q23 94 23 169q-132 -83 -141 -84q-16 -7 -23 -7h-7q-47 0 -75 76q0 37 86 105q185 123 187 139q36 68 79 68z" />
    <glyph glyph-name="t" unicode="t" horiz-adv-x="549" 
d="M859 1166q40 -11 40 -40v-6q0 -19 -32 -64l-80 -132h52q34 0 46 -26l4 -16v-2q-11 -88 -48 -88l-9 -1h-131q-4 -3 -184 -302q-131 -209 -163 -279h2q68 47 265 223q178 150 230 150h8q89 -30 111 -73l2 -10v-5q0 -33 -47 -52q-54 -36 -188 -154q-313 -324 -448 -324h-13
q-134 30 -176 135q-10 30 -10 59v14q0 47 43 146h-2l-11 -2q-60 8 -60 57v3q0 40 92 110q139 131 154 162q71 95 227 353q90 140 97 148q11 11 116 11z" />
    <glyph glyph-name="u" unicode="u" horiz-adv-x="931" 
d="M520 638q21 0 35 -35v-10q0 -14 -107 -154l-131 -191q89 66 157 161q91 107 180 203q12 15 78 15l181 11q21 0 36 -35v-10q0 -12 -55 -102l-190 -283v-1q49 36 277 226q130 114 183 114q112 -40 112 -85v-3q0 -25 -45 -47q-53 -32 -192 -167q-273 -288 -400 -288h-16
q-138 4 -172 84q-10 32 -10 50q-124 -104 -230 -104h-17q-84 0 -129 89q-17 38 -17 74q0 60 45 149q-23 0 -44 33l-4 21q0 38 75 94q95 83 178 169q9 10 58 10q38 4 164 12z" />
    <glyph glyph-name="v" unicode="v" horiz-adv-x="758" 
d="M341 637h2q91 0 118 -104q4 -13 6 -47q-2 -31 -5 -39v-1h2q19 55 84 127q61 62 126 62q81 0 105 -90l5 -43q0 -82 -84 -170h1q5 0 189 166q62 60 107 60h4q65 -20 107 -68l3 -14v-7q0 -24 -51 -52q-69 -49 -213 -194q-128 -107 -222 -107l-26 1q-175 -141 -307 -141h-21
q-100 0 -169 85q-33 55 -33 119q0 68 54 158h-1l-17 -3q-50 9 -50 48v1q0 34 80 109q105 108 130 119q40 25 76 25zM424 372q-27 -64 -116 -193q-17 -28 -17 -32q52 9 86 31q21 10 72 54q-27 44 -27 83v16q0 17 3 39v2h-1z" />
    <glyph glyph-name="w" unicode="w" horiz-adv-x="1227" 
d="M543 634q24 0 36 -29l3 -14q0 -17 -42 -74q-110 -181 -178 -291h1q86 68 119 112q112 137 188 262q11 22 55 22l216 12q32 0 40 -43q-1 -13 -9 -24v-2q67 69 132 69h5q78 0 103 -73q7 -21 7 -47q0 -110 -128 -233v-2h1q37 9 217 175q107 90 156 90q40 0 107 -63l6 -19v-2
q0 -30 -43 -52q-53 -32 -209 -179q-141 -123 -258 -123q-39 2 -45 4q-164 -161 -323 -161q-133 0 -176 86q-8 25 -14 67h-2q-166 -155 -297 -155h-5q-108 0 -157 144q-7 30 -7 57q0 50 60 147q-33 0 -49 38q-3 6 -3 16v3q0 36 80 95q61 59 139 127q35 47 57 47zM870 401
q-121 -197 -146 -260h7q67 0 155 85v1q-29 45 -29 88q0 40 13 85v1v0z" />
    <glyph glyph-name="x" unicode="x" horiz-adv-x="668" 
d="M645 633h7q85 0 118 -80q4 -17 4 -31v-6q0 -76 -80 -104q-14 -3 -31 -3q-55 0 -92 39q-26 -44 -50 -135q-20 -74 -35 -160q119 114 194 204q157 166 233 166h2q64 -20 109 -58l3 -17q0 -29 -38 -45q-48 -28 -145 -123l-161 -175q-95 -98 -119 -107q-74 -18 -115 -18h-12
q-124 20 -169 144l-46 -61q-68 -75 -153 -75q-79 0 -110 78q-4 17 -4 33v7q0 70 64 104q20 9 48 9q57 0 92 -41q56 68 78 132q29 73 29 111q-95 -90 -121 -90h-8q-34 0 -49 40l-1 9q0 33 72 98q142 149 210 149h13q67 0 104 -90l2 -5h2q67 101 155 101z" />
    <glyph glyph-name="y" unicode="y" horiz-adv-x="998" 
d="M361 629h5q92 0 133 -103q10 -33 10 -71q0 -106 -113 -293v-1q106 117 166 202q81 106 162 236q9 18 64 18l188 12q32 0 41 -44q0 -18 -48 -92l-171 -279q46 22 300 251q74 61 125 61h4q96 -30 126 -98q0 -30 -44 -51q-90 -68 -249 -215q-163 -142 -283 -202l-88 -26
q-103 -155 -261 -355q-182 -215 -396 -215q-153 20 -215 132q-17 38 -17 79v3q0 206 403 369v3q-58 18 -85 60q-32 44 -32 107v2q0 94 72 217v0q-66 -56 -90 -56q-53 8 -53 51v3q0 38 129 158q134 137 217 137zM19 -431v-10q5 -25 32 -25h6q77 0 182 180q26 38 62 107h-2
q-77 -32 -162 -86q-118 -88 -118 -166z" />
    <glyph glyph-name="z" unicode="z" horiz-adv-x="793" 
d="M714 632h4q63 0 80 -76l2 -17q0 -73 -180 -210q-58 -69 -98 -123l-7 -13q19 -7 33 -28q91 78 315 273q99 69 150 69q68 -20 113 -70l4 -18q0 -31 -47 -51q-83 -62 -278 -223l-190 -158q7 -21 7 -54q-10 -173 -221 -381q-40 -35 -73 -58q-188 -129 -338 -129
q-111 0 -187 106q-28 51 -28 88v7q0 215 524 462l31 10v3q3 9 -5 9q-57 -31 -156 -51q-75 0 -99 60q-5 13 -5 28q0 86 149 116q41 5 68 5l26 5l38 47q-53 0 -81 34q-31 31 -31 87q-92 -72 -123 -82q-46 -10 -61 22l-2 9q0 69 164 206q109 89 167 89h18q66 0 100 -73
q6 -12 9 -48q0 -66 -59 -129h3q21 0 26 10q65 106 122 176q64 71 116 71zM-22 -448q0 -10 14 -13h3q94 10 300 311v2q-87 -47 -183 -119q-134 -108 -134 -181z" />
    <glyph glyph-name="braceleft" unicode="{" 
 />
    <glyph glyph-name="bar" unicode="|" 
 />
    <glyph glyph-name="braceright" unicode="}" 
 />
    <glyph glyph-name="asciitilde" unicode="~" horiz-adv-x="1706" 
 />
    <glyph glyph-name="nonbreakingspace" unicode="&#xa0;" horiz-adv-x="862" 
 />
    <glyph glyph-name="exclamdown" unicode="&#xa1;" horiz-adv-x="711" 
d="M303 -14q-49 0 -76.5 26t-27.5 72q0 70 140 239q95 114 146 187q39 55 80.5 123.5t55.5 68.5q4 0 7 -4t3 -10t-16 -37q-59 -118 -95 -248q-13 -46 -35 -129q-74 -288 -182 -288zM641 983q0 48 43 84.5t100 36.5q50 0 78.5 -26.5t28.5 -71.5q0 -54 -38 -88.5t-97 -34.5
q-52 0 -83.5 27.5t-31.5 72.5z" />
    <glyph glyph-name="cent" unicode="&#xa2;" horiz-adv-x="862" 
d="M332 61q-99 25 -149 81.5t-50 144.5q0 83 63.5 180t168.5 170q75 53 154.5 79.5t160.5 26.5h27l85 149q5 8 11 19q16 29 28 29q7 0 12 -5.5t5 -12.5t-5 -19t-14 -26l-77 -142q76 -14 116.5 -58.5t40.5 -115.5q0 -47 -26 -73.5t-74 -26.5q-38 0 -60 19.5t-22 54.5
q0 44 45 76t45 36q0 20 -25 32.5t-67 12.5l-324 -596h21q146 0 264 119q27 27 35 27t11 -3.5t3 -11.5q0 -45 -99.5 -108.5t-221.5 -63.5q-15 0 -22.5 0.5t-14.5 1.5l-105 -200q-16 -33 -25.5 -42.5t-21.5 -9.5q-7 0 -11.5 5.5t-4.5 13.5q0 9 13.5 31t19.5 34zM357 107
l318 583q-57 -4 -115.5 -55t-121.5 -154q-57 -93 -93 -182.5t-36 -132.5q0 -25 12.5 -40t35.5 -19z" />
    <glyph glyph-name="sterling" unicode="&#xa3;" horiz-adv-x="862" 
d="M184 455l19 53h178q75 208 203.5 314t306.5 106q83 0 138.5 -48.5t55.5 -117.5q0 -45 -30 -76t-74 -31q-33 0 -57.5 24t-24.5 56q0 36 35 67t35 44q0 24 -17 35.5t-51 11.5q-110 0 -184 -87t-137 -298h215l-23 -53h-209q-34 -109 -97.5 -199t-158.5 -164
q53 -34 108 -50.5t115 -16.5q149 0 287 92q21 14 25 14q7 0 10.5 -2.5t3.5 -7.5q0 -36 -103 -83.5t-225 -47.5q-66 0 -127.5 18t-132.5 60q-62 -39 -118.5 -58.5t-104.5 -19.5q-71 0 -115.5 33t-44.5 86q0 47 37 80.5t92 33.5q40 0 83.5 -16.5t115.5 -61.5q41 51 77.5 127
t69.5 183h-176zM190 119q-4 2 -13 7q-122 64 -165 64q-38 0 -62 -22.5t-24 -58.5t29 -59t72 -23q37 0 80.5 24t82.5 68z" />
    <glyph glyph-name="currency" unicode="&#xa4;" horiz-adv-x="1241" 
d="M623 1200q-130 0 -222 -92t-92 -221q0 -131 91.5 -223.5t222.5 -92.5q129 0 221 93t92 223q0 129 -91.5 221t-221.5 92zM158 1419l207 -207q60 46 122.5 68.5t133.5 22.5t135.5 -22.5t124.5 -68.5l204 207l72 -73l-205 -205q43 -57 64.5 -121t21.5 -135t-21.5 -135.5
t-64.5 -120.5l205 -205l-72 -74l-204 207q-57 -44 -121.5 -66t-138.5 -22t-136.5 21.5t-119.5 66.5l-207 -207l-72 74l207 205q-44 58 -66 122t-22 134q0 69 22 133.5t66 122.5l-207 205z" />
    <glyph glyph-name="yen" unicode="&#xa5;" horiz-adv-x="862" 
d="M602 442l-49 -96h276l-24 -39h-277l-170 -307h-157l170 307h-260l26 39h252l49 98h-235l26 39h205l-76 426h154l66 -430l436 430h63l-438 -428h219l-24 -39h-232z" />
    <glyph glyph-name="brokenbar" unicode="&#xa6;" 
d="M449 408h126v-758h-126v758zM449 1432h126v-758h-126v758z" />
    <glyph glyph-name="section" unicode="&#xa7;" horiz-adv-x="1161" 
d="M700 1006q17 121 97 196.5t190 75.5q89 0 145 -50.5t56 -131.5q0 -67 -42.5 -112.5t-103.5 -45.5q-47 0 -78.5 30t-31.5 76q0 44 31.5 80.5t62.5 36.5q7 0 10.5 -2.5t3.5 -7.5q0 -7 -22.5 -42.5t-22.5 -68.5q0 -26 15.5 -43.5t40.5 -17.5q39 0 65.5 33t26.5 86
q0 62 -41 102.5t-105 40.5q-88 0 -145 -66t-57 -169q0 -60 21 -122t87 -173l1 -2q175 -298 175 -410q0 -113 -73.5 -198t-206.5 -126q-9 -114 -91 -191t-190 -77q-81 0 -137.5 46.5t-56.5 109.5q0 46 30 77t74 31q36 0 60 -23.5t24 -60.5q0 -29 -34 -61t-34 -43
q0 -19 20 -31t54 -12q80 0 134.5 63.5t54.5 159.5q0 56 -18.5 114.5t-61.5 135.5q-20 36 -60 103q-141 239 -141 358q0 111 73.5 200t200.5 132zM803 15q76 27 112.5 75.5t36.5 122.5q0 95 -123 339q-27 53 -41 81q-50 103 -70 170.5t-20 128.5q0 13 0.5 20.5t1.5 13.5
q-68 -24 -107.5 -77.5t-39.5 -120.5q0 -94 100 -295q33 -65 49 -100q47 -106 71 -193t30 -165z" />
    <glyph glyph-name="dieresis" unicode="&#xa8;" 
d="M897 948q32 0 56 -23.5t24 -54.5q0 -33 -23 -56t-57 -23q-32 0 -54 23t-22 56q0 31 23 54.5t53 23.5zM639 948q32 0 55 -23t23 -55q0 -34 -22.5 -56.5t-55.5 -22.5t-55.5 23t-22.5 56q0 31 23.5 54.5t54.5 23.5z" />
    <glyph glyph-name="copyright" unicode="&#xa9;" horiz-adv-x="1683" 
d="M1120 1096h35l2 -314h-41q-34 137 -104 206t-176 69q-123 0 -185.5 -94.5t-62.5 -278.5q0 -189 67 -285t199 -96q86 0 156 43t127 131l34 -24q-58 -105 -143 -157t-199 -52q-167 0 -285 123t-118 297q0 186 116 312t285 126q74 0 148 -34t82 -34q27 0 42 14.5t21 47.5z
M844 1303q-123 0 -237.5 -48.5t-200.5 -136.5q-88 -89 -134.5 -202.5t-46.5 -237.5q0 -125 47 -238.5t136 -201.5q88 -89 198.5 -135t235.5 -46q126 0 236.5 46t197.5 135q88 90 135 203t47 237t-47.5 240.5t-132.5 201.5q-86 87 -200.5 135t-233.5 48zM844 1382
q137 0 266.5 -53.5t226.5 -150.5q98 -97 152.5 -228.5t54.5 -271.5t-53 -268t-154 -230q-98 -100 -225 -152.5t-270 -52.5t-269 52.5t-227 152.5t-154 227t-53 271q0 140 53 268.5t152 229.5q98 99 228 152.5t272 53.5z" />
    <glyph glyph-name="ordfeminine" unicode="&#xaa;" horiz-adv-x="733" 
d="M506 1184q0 25 -17 41t-43 16q-28 0 -71.5 -37.5t-104.5 -116.5q-65 -82 -94 -133t-29 -82q0 -14 7.5 -21t23.5 -7q34 0 82.5 32t99.5 89q67 73 106.5 133t39.5 86zM532 1194l37 70l150 10l-158 -303q-21 -42 -32 -65t-11 -27q0 -7 5.5 -13t11.5 -6q20 0 137 107
q47 44 76 69q98 92 154.5 135t78.5 43q2 0 8 -1t10 -1q-55 -28 -192 -157q-37 -35 -57 -54q-17 -15 -46 -42q-145 -138 -223 -138q-41 0 -66.5 23.5t-25.5 60.5q0 22 5 41.5t16 40.5q-60 -80 -120.5 -122t-117.5 -42q-60 0 -97.5 35t-37.5 92q0 63 33 118t102 106
q70 49 131 74.5t113 25.5q48 0 77.5 -20.5t38.5 -59.5z" />
    <glyph glyph-name="guillemotleft" unicode="&#xab;" horiz-adv-x="948" 
d="M623 322l271 171l6 4q32 21 50 21q6 0 9.5 -3.5t3.5 -8.5q0 -19 -32 -45q-4 -3 -5 -4l-193 -156l19 -168q1 -6 1.5 -12t0.5 -17q0 -9 -4.5 -15.5t-10.5 -6.5q-11 0 -21 23q-3 7 -5 11zM340 322l275 172l4 3q32 21 51 21q4 0 7 -3.5t3 -8.5q0 -12 -6 -21t-29 -28
l-192 -156l16 -168q1 -5 1.5 -11.5t0.5 -17.5q0 -9 -4 -15.5t-10 -6.5q-12 0 -22 24q-3 7 -5 11z" />
    <glyph glyph-name="logicalnot" unicode="&#xac;" horiz-adv-x="1706" 
d="M254 858h1198v-502h-115v385h-1083v117z" />
    <glyph glyph-name="sfthyphen" unicode="&#xad;" horiz-adv-x="711" 
d="M231 272l52 101h426l-52 -101h-426z" />
    <glyph glyph-name="registered" unicode="&#xae;" horiz-adv-x="1683" 
d="M729 719q16 -1 32 -1.5t34 -0.5q112 0 173.5 45.5t61.5 128.5q0 73 -53 117.5t-143 44.5q-52 0 -78.5 -18.5t-26.5 -53.5v-262zM469 1092h393q147 0 232.5 -54.5t85.5 -146.5q0 -76 -69.5 -124t-217.5 -75q93 -29 142 -77.5t71 -133.5q6 -22 11 -63q13 -88 59 -88
q32 0 49.5 34t17.5 99h43v-12q0 -88 -40.5 -133.5t-119.5 -45.5q-46 0 -78.5 17t-48.5 49q-18 40 -21 113.5t-9 95.5q-20 68 -70.5 100.5t-136.5 32.5h-33v-248q0 -54 26.5 -75.5t98.5 -25.5v-40h-385v40q72 3 99.5 24.5t27.5 76.5v516q0 55 -26 76t-101 25v43zM844 1303
q-122 0 -236 -48t-202 -137t-134.5 -202.5t-46.5 -237.5q0 -127 46.5 -239t136.5 -201q88 -89 198.5 -135t235.5 -46q126 0 236.5 46t197.5 135q88 90 135 203t47 237t-47.5 241.5t-132.5 200.5q-86 87 -200.5 135t-233.5 48zM844 1382q138 0 268.5 -54t228.5 -152
q97 -97 150 -228t53 -272q0 -137 -55.5 -267.5t-157.5 -232.5q-99 -99 -224.5 -150t-270.5 -51q-137 0 -263 52.5t-227 152.5t-154 227t-53 271q0 140 53 268.5t152 229.5q98 99 228 152.5t272 53.5z" />
    <glyph glyph-name="macron" unicode="&#xaf;" 
d="M617 940q69 -3 112 -4.5t62 -1.5q33 0 80 1.5t108 4.5l-51 -100q-38 1 -95.5 2.5t-72.5 1.5q-43 0 -153 -3q-28 -1 -42 -1z" />
    <glyph glyph-name="degree" unicode="&#xb0;" horiz-adv-x="674" 
d="M338 1372q-84 0 -143.5 -58.5t-59.5 -142.5t59.5 -143t143.5 -59t142.5 59t58.5 143t-58.5 142.5t-142.5 58.5zM338 1454q117 0 200 -83t83 -200q0 -116 -83.5 -199t-201.5 -83t-199.5 82t-81.5 200q0 119 82.5 201t200.5 82z" />
    <glyph glyph-name="plusminus" unicode="&#xb1;" horiz-adv-x="1706" 
d="M254 158h1198v-117h-1198v117zM795 1180h118v-344h539v-117h-539v-344h-118v344h-541v117h541v344z" />
    <glyph glyph-name="twosuperior" unicode="&#xb2;" horiz-adv-x="569" 
d="M125 467q24 9 46 13.5t46 4.5q58 0 126 -27.5t83 -27.5q28 0 59 33t37 33q6 -1 7 -1.5t1 -2.5q0 -29 -71.5 -82.5t-141.5 -53.5q-46 0 -108.5 34t-87.5 34q-31 0 -57 -33t-29 -33q-6 0 -9 2.5t-3 6.5t8.5 24t19.5 37q31 46 141 112q24 15 37 23q134 81 190 145t56 132
q0 28 -16.5 42.5t-48.5 14.5q-29 0 -66.5 -13.5t-73.5 -37.5q-41 -29 -68.5 -65.5t-27.5 -59.5q0 -17 7.5 -25t23.5 -8q43 0 85 50t46 50q5 0 7.5 -3t2.5 -9q0 -18 -49.5 -65t-95.5 -47q-28 0 -42 13t-14 40q0 67 89.5 135t197.5 68q80 0 129 -37t49 -97q0 -54 -42.5 -98
t-127.5 -78q-24 -9 -73 -28q-173 -64 -242 -115z" />
    <glyph glyph-name="threesuperior" unicode="&#xb3;" horiz-adv-x="569" 
 />
    <glyph glyph-name="acute" unicode="&#xb4;" 
d="M1122 1022q-107 -83 -192 -151.5t-154 -129.5l-14 2q39 75 79.5 143.5t82.5 133.5z" />
    <glyph glyph-name="mu" unicode="&#xb5;" horiz-adv-x="1120" 
d="M164 193q-27 -136 -52 -339q-34 -272 -112 -272q-37 0 -58.5 23.5t-21.5 64.5q0 40 64.5 273.5t105.5 427.5l109 514h147l-104 -492q-6 -30 -9.5 -58.5t-3.5 -53.5q0 -83 42 -129t118 -46q98 0 163.5 68.5t94.5 200.5l111 510h149l-114 -531q-13 -59 -17 -87.5t-4 -49.5
q0 -48 26 -78t66 -30q35 0 65.5 18t51.5 51t41 93.5t39 60.5q12 0 19 -10t7 -27q0 -25 -11 -66.5t-29 -83.5q-38 -82 -95 -122.5t-135 -40.5q-68 0 -108.5 51t-40.5 139v23q-46 -110 -116 -164t-165 -54q-96 0 -152.5 54.5t-70.5 161.5z" />
    <glyph glyph-name="paragraph" unicode="&#xb6;" 
d="M948 1479v-78h-125v-1401h-94v1401h-182v-1401h-96v782q-173 8 -274 102.5t-101 245.5q0 157 107.5 253t285.5 96h479z" />
    <glyph glyph-name="Agrave" unicode="&#xc0;" horiz-adv-x="1530" 
d="M1767 1534h5q44 0 60 -104l29 -114q37 0 46 -50q0 -31 -155 -298q-213 -386 -380 -765h2q37 5 269 232q183 170 251 170q51 0 64 -39v-17q0 -24 -75 -65q-78 -65 -307 -291q-137 -113 -224 -128q-55 -5 -55 -26q0 -26 -136 -33l-169 -19q-38 12 -38 44q0 12 21 66
q-85 28 -220 125q-269 -266 -501 -266q-181 0 -242 152q-12 41 -12 75v30q0 137 145 201q34 12 78 12q105 0 145 -102l5 -34v-7q0 -102 -116 -136l-88 -24v-5q0 -35 94 -41q161 0 405 235q-80 107 -80 213v7q0 146 142 218q44 14 83 14h17q91 0 188 -75q299 303 342 328
q251 211 351 254v4q-54 77 -129 160l-2 17q0 36 46 51zM1101 590q65 -109 65 -172h3q171 278 421 627l9 12v2q-56 -23 -401 -367zM755 448l5 -34h3q128 131 161 174l-36 4q-64 0 -121 -94q-12 -31 -12 -50zM843 312q141 -97 180 -97q20 90 20 140q0 69 -29 140z" />
    <glyph glyph-name="Aacute" unicode="&#xc1;" horiz-adv-x="1540" 
d="M1851 1316h2q54 -7 54 -54q0 -28 -105 -207q-236 -417 -432 -857h1q33 7 152 118q286 286 370 286q48 0 62 -32q3 -6 3 -17v-3q0 -28 -49 -50q-52 -35 -178 -156q-155 -159 -206 -192q-98 -76 -190 -93q-33 -3 -33 -10q-13 -34 -44 -34l-262 -29q-41 10 -41 41v8
q3 15 23 60q-75 28 -116 56q-33 15 -105 69h-2q-270 -264 -494 -264h-12q-168 0 -232 140q-17 46 -17 91v11q0 141 130 207q46 17 86 17q97 0 142 -78q14 -26 14 -55v-13q0 -107 -146 -138q-58 -14 -58 -20v-5q11 -34 81 -38h21q157 0 399 236q-80 107 -80 206v18
q0 131 133 208q49 19 92 19h12q98 0 193 -76l1 1q228 233 305 296q385 333 526 333zM1101 590q58 -99 66 -174h2q180 289 438 647v1q-77 -50 -298 -262zM755 443q3 -35 8 -35q119 125 165 178l-30 5q-70 0 -125 -82q-18 -33 -18 -66zM842 312v-1q116 -85 182 -102v1
q19 78 19 134v17q0 70 -29 134zM2063 1496l82 -31q102 -37 92 -63l-7 -19q-10 -27 -186 -68l-169 -66q-74 6 -96 18l-9 5q-19 9 53 72.5t214 151.5h26z" />
    <glyph glyph-name="Acircumflex" unicode="&#xc2;" horiz-adv-x="1530" 
d="M1501 1534h5q116 -21 116 -44q14 -10 67 -188l16 -34q91 51 144 51q58 -7 58 -51v-3q0 -30 -161 -310q-209 -380 -373 -752h2q37 5 268 232q183 169 253 169q50 0 62 -38v-17q0 -24 -75 -65q-78 -64 -308 -291q-135 -114 -222 -128q-56 -6 -56 -27q0 -25 -135 -31
l-169 -19q-39 11 -39 43q0 11 22 66q-81 24 -220 125q-270 -266 -502 -266q-181 0 -242 152q-12 41 -12 76v28q0 138 145 201q34 13 78 13q105 0 145 -102l5 -34v-7q0 -102 -117 -136l-87 -24v-4q0 -37 95 -42q160 0 404 235q-80 107 -80 213v7q0 146 143 218q44 14 82 14
h17q92 0 189 -74q291 295 325 311q160 139 263 206l-65 139q-111 -141 -143 -141q-2 -6 -34 -10q-51 9 -51 42q0 27 59 104q31 61 63 155q25 38 65 38zM1101 590q66 -109 66 -172h2q171 278 422 627l9 12v3q-56 -25 -401 -369zM756 448l4 -35h2q129 131 163 175l-36 5
q-64 0 -122 -95q-11 -28 -11 -50zM843 312q141 -97 180 -97q21 90 21 141q0 68 -30 139z" />
    <glyph glyph-name="Atilde" unicode="&#xc3;" horiz-adv-x="1532" 
d="M1851 1316h2q54 -7 54 -54q0 -28 -105 -207q-236 -417 -432 -857h1q33 7 152 118q286 286 370 286q48 0 62 -32q3 -6 3 -17v-3q0 -28 -49 -50q-52 -35 -178 -156q-155 -159 -206 -192q-98 -76 -190 -93q-33 -3 -33 -10q-13 -34 -44 -34l-262 -29q-41 10 -41 41v8
q3 15 23 60q-75 28 -116 56q-33 15 -105 69h-2q-270 -264 -494 -264h-12q-168 0 -232 140q-17 46 -17 91v11q0 141 130 207q46 17 86 17q97 0 142 -78q14 -26 14 -55v-13q0 -107 -146 -138q-58 -14 -58 -20v-5q11 -34 81 -38h21q157 0 399 236q-80 107 -80 206v18
q0 131 133 208q49 19 92 19h12q98 0 193 -76l1 1q228 233 305 296q385 333 526 333zM1101 590q58 -99 66 -174h2q180 289 438 647v1q-77 -50 -298 -262zM755 443q3 -35 8 -35q119 125 165 178l-30 5q-70 0 -125 -82q-18 -33 -18 -66zM842 312v-1q116 -85 182 -102v1
q19 78 19 134v17q0 70 -29 134zM1749 1444h24q28 0 172 -76h16q34 0 88 64h12q28 0 28 -28v-12q0 -69 -96 -128l-28 -4h-32q-31 0 -152 72l-36 4q-33 0 -84 -60l-24 -8q-28 0 -28 28v12q0 77 96 128q16 8 44 8z" />
    <glyph glyph-name="Adieresis" unicode="&#xc4;" horiz-adv-x="1540" 
d="M1851 1316h2q54 -7 54 -54q0 -28 -105 -207q-236 -417 -432 -857h1q33 7 152 118q286 286 370 286q48 0 62 -32q3 -6 3 -17v-3q0 -28 -49 -50q-52 -35 -178 -156q-155 -159 -206 -192q-98 -76 -190 -93q-33 -3 -33 -10q-13 -34 -44 -34l-262 -29q-41 10 -41 41v8
q3 15 23 60q-75 28 -116 56q-33 15 -105 69h-2q-270 -264 -494 -264h-12q-168 0 -232 140q-17 46 -17 91v11q0 141 130 207q46 17 86 17q97 0 142 -78q14 -26 14 -55v-13q0 -107 -146 -138q-58 -14 -58 -20v-5q11 -34 81 -38h21q157 0 399 236q-80 107 -80 206v18
q0 131 133 208q49 19 92 19h12q98 0 193 -76l1 1q228 233 305 296q385 333 526 333zM1101 590q58 -99 66 -174h2q180 289 438 647v1q-77 -50 -298 -262zM755 443q3 -35 8 -35q119 125 165 178l-30 5q-70 0 -125 -82q-18 -33 -18 -66zM842 312v-1q116 -85 182 -102v1
q19 78 19 134v17q0 70 -29 134zM1771 1469q57 0 88 -76h3q31 50 85 50h3q103 -15 103 -103v-3q0 -71 -83 -100l-20 -3q-73 0 -100 79q-40 -50 -88 -50h-6q-72 0 -100 83v26q0 73 85 97h30z" />
    <glyph glyph-name="Aring" unicode="&#xc5;" horiz-adv-x="1540" 
d="M1851 1316h2q54 -7 54 -54q0 -28 -105 -207q-236 -417 -432 -857h1q33 7 152 118q286 286 370 286q48 0 62 -32q3 -6 3 -17v-3q0 -28 -49 -50q-52 -35 -178 -156q-155 -159 -206 -192q-98 -76 -190 -93q-33 -3 -33 -10q-13 -34 -44 -34l-262 -29q-41 10 -41 41v8
q3 15 23 60q-75 28 -116 56q-33 15 -105 69h-2q-270 -264 -494 -264h-12q-168 0 -232 140q-17 46 -17 91v11q0 141 130 207q46 17 86 17q97 0 142 -78q14 -26 14 -55v-13q0 -107 -146 -138q-58 -14 -58 -20v-5q11 -34 81 -38h21q157 0 399 236q-80 107 -80 206v18
q0 131 133 208q49 19 92 19h12q98 0 193 -76l1 1q228 233 305 296q385 333 526 333zM1101 590q58 -99 66 -174h2q180 289 438 647v1q-77 -50 -298 -262zM755 443q3 -35 8 -35q119 125 165 178l-30 5q-70 0 -125 -82q-18 -33 -18 -66zM842 312v-1q116 -85 182 -102v1
q19 78 19 134v17q0 70 -29 134zM1856 1557q94 0 138 -114l3 -31v-3q0 -112 -117 -149l-35 -3h-3q-101 0 -142 114l-3 27v18q0 105 128 141h31zM1773 1409v-4q0 -60 76 -72q72 17 72 72q0 63 -72 76h-4q-72 -11 -72 -72z" />
    <glyph glyph-name="AE" unicode="&#xc6;" horiz-adv-x="2169" 
 />
    <glyph glyph-name="Ccedilla" unicode="&#xc7;" horiz-adv-x="1134" 
d="M728 1265h52q106 0 106 -70q-14 -55 -69 -55h-10q-268 0 -484 -255q-91 -119 -91 -203v-14q0 -70 79 -96l36 -7v2q44 80 150 209q161 172 269 251q315 233 508 233h14q138 0 188 -113l10 -63q0 -211 -446 -486l-41 -19v-3q150 0 207 -132q12 -34 12 -68v-16
q0 -138 -170 -274q-163 -114 -350 -114h-9l24 -60l3 -26v-17q0 -150 -222 -200l-113 -10q-53 7 -53 41v9q0 44 89 44q138 18 138 82q0 21 -78 21q-29 13 -29 32v12q0 14 68 104v2q-61 16 -150 96q-88 98 -88 224q0 56 19 130q-64 10 -130 57q-99 90 -99 210v31
q0 243 334 432q162 79 326 79zM742 605q171 48 363 214q131 126 131 140q86 113 86 161q-3 25 -22 25h-7q-119 -9 -421 -359q-95 -120 -130 -181zM557 213q0 -122 140 -122h19q150 0 312 137q68 72 68 137v14q0 54 -56 73l-14 1h-24q-131 0 -193 -247q-25 -41 -48 -41h-24
q-35 0 -50 55v36q0 136 106 241h-3l-142 -31q-91 -158 -91 -253z" />
    <glyph glyph-name="Egrave" unicode="&#xc8;" 
d="M674 1442h36q34 0 101 -121l48 -72q102 34 205 34q236 0 325 -166q22 -46 22 -107q0 -159 -159 -241q-48 -14 -77 -14h-27q-112 0 -158 131l-3 26v24q0 100 135 178q31 10 48 10q62 -8 62 -50v-8q0 -26 -74 -89q-24 -37 -24 -56v-12q0 -33 27 -33h17q68 0 107 103l6 29
q0 100 -107 137l-55 8q-138 0 -253 -191q-26 -72 -26 -115l4 -36h47q154 0 199 -87l5 -34q0 -62 -94 -84l-24 -2h-10q-83 0 -197 62q-167 -58 -265 -231q-43 -89 -43 -179v-2q0 -95 82 -130q43 -14 77 -14h51q172 0 310 149q41 57 41 115q-7 78 -75 78h-4q-88 0 -165 -145
q-14 -32 -31 -121q-28 -40 -55 -40h-12q-65 11 -65 84v56q0 145 149 255q72 41 140 41h26q143 0 205 -142q10 -34 10 -75q0 -195 -267 -330q-115 -48 -237 -48h-28q-271 0 -410 210q-36 72 -36 137v29q0 283 424 406l43 11v2q-55 73 -55 164q0 145 173 257q-48 24 -238 164
q-13 13 -13 22v17q0 33 75 33z" />
    <glyph glyph-name="Eacute" unicode="&#xc9;" 
d="M1069 1480h31q157 0 157 -20q7 -12 7 -23v-3q0 -29 -72 -70q-6 -8 -111 -79v-2q211 0 304 -157q26 -52 26 -108v-3q0 -161 -149 -238q-46 -21 -99 -21h-8q-117 0 -163 125l-5 33v22q0 105 142 183l34 5h14q55 -10 55 -49v-11q0 -25 -64 -75q-34 -39 -34 -73q0 -40 34 -40
q78 0 115 99l8 35q0 108 -123 140l-36 2h-5q-133 0 -246 -180q-31 -73 -31 -125l3 -19v-10l4 -5h15q175 0 221 -74q13 -18 13 -44v-10q0 -55 -97 -79l-29 -3q-85 0 -200 65q-61 -22 -115 -60q-193 -152 -193 -349v-4q0 -103 99 -136q40 -9 79 -9h4q224 0 353 171
q26 51 26 94q-7 77 -65 77l-7 2q-99 0 -174 -151q-9 -24 -31 -119q-26 -38 -57 -38q-50 0 -71 58l-2 26v56q0 153 159 262q70 37 145 37q166 0 221 -159l4 -54v-2q0 -189 -240 -320q-122 -63 -277 -63q-270 0 -409 188q-51 77 -51 166v25q0 273 405 399l62 14v3
q-55 75 -55 161q0 194 277 311q39 0 52 41q86 134 121 176q19 9 29 9z" />
    <glyph glyph-name="Ecircumflex" unicode="&#xca;" 
d="M1105 1567h65q52 0 72 -56q3 -95 36 -209q15 -36 15 -46v-19l-3 -12q121 -80 121 -215q0 -160 -159 -240q-47 -15 -70 -15h-40q-95 0 -147 114q-8 25 -8 43v24q0 100 135 178q32 10 51 10q52 -13 52 -29q6 0 8 -22v-7q0 -28 -68 -82q-31 -36 -31 -70q0 -39 29 -39h22
q53 0 96 90q8 16 9 43q0 104 -114 140l-47 4q-130 0 -241 -170q-38 -72 -38 -135l4 -37h44q167 0 205 -96l2 -24q0 -67 -104 -87h-31q-73 0 -192 63q-80 -24 -179 -116q-127 -137 -127 -294v-1q0 -109 103 -138q29 -8 75 -9q214 0 347 156q36 58 36 108q0 59 -48 75l-21 4
h-6q-91 0 -166 -139q-17 -37 -34 -125q-26 -42 -55 -42h-7q-49 0 -68 56l-2 34v51q0 138 137 246q71 50 162 50h7q155 0 214 -143q10 -36 10 -74q0 -195 -268 -330q-115 -48 -229 -48h-43q-258 0 -399 204q-39 74 -39 143v29q0 277 410 402l57 14q-55 78 -55 164
q0 187 262 304q17 0 17 21q175 269 191 285q24 14 45 14zM1007 1281h2l55 1l95 -6q-45 83 -54 115q-35 -33 -98 -110z" />
    <glyph glyph-name="Edieresis" unicode="&#xcb;" 
d="M877 1516h11q90 0 131 -101l5 -33v-6q0 -55 -36 -96l59 2h42q212 0 306 -173q16 -50 16 -92v-2q0 -172 -170 -248q-44 -12 -83 -12q-120 0 -166 125l-4 34v17q0 110 137 185l48 10q60 -13 60 -51v-7q0 -30 -63 -77q-36 -40 -36 -74q0 -42 36 -42q77 0 116 106l5 29
q0 106 -116 138q-10 4 -39 4h-11q-131 0 -243 -180q-29 -62 -32 -125l2 -20v-10l5 -4h25q176 0 218 -87l5 -31v-10q0 -56 -98 -80l-27 -2q-84 0 -200 66q-62 -24 -115 -61q-193 -151 -193 -349v-5q0 -145 185 -145q209 0 342 159q34 59 34 106q0 61 -55 78l-15 2
q-103 0 -178 -156l-28 -114q-29 -38 -56 -38q-51 0 -70 53q-5 10 -5 38v48q0 161 169 267q62 32 135 32q168 0 222 -159l4 -53v-3q0 -205 -282 -339q-115 -43 -236 -43q-274 0 -415 195q-45 78 -45 154v29q0 279 420 404l47 12q-55 78 -55 162q0 85 58 161h-13
q-100 0 -137 114l-2 28q0 97 103 136q12 4 32 4h14q52 0 101 -48l-5 33v11q0 89 102 129z" />
    <glyph glyph-name="Igrave" unicode="&#xcc;" horiz-adv-x="1126" 
d="M1556 1281h10q47 0 65 -41l3 -16q0 -36 -40 -53q-20 -7 -58 -7q-86 -29 -203 -223q-109 -193 -240 -473h1q97 -3 148 62q19 28 33 175q13 67 67 75h3q47 -18 50 -65l4 -29q18 -246 -150 -332q-123 -48 -205 -38q-35 -3 -35 -15q-87 -164 -347 -266q-135 -48 -275 -48
q-221 0 -328 142q-32 55 -32 111v5q0 117 106 187q53 30 104 30h18q79 0 119 -68q19 -32 19 -70v-13q0 -86 -95 -117q-79 -17 -91 -25q14 -24 73 -49q43 -12 79 -12h10q208 0 339 255l-2 1q-132 38 -190 122q-59 79 -59 181q0 263 392 457q354 157 707 157zM657 587
q10 -59 96 -84l22 -5q102 229 245 426q41 57 143 156l32 29h-1q-171 -46 -339 -190q-198 -187 -198 -332zM1156 1484l98 19q41 -19 148 -135l95 -112l-4 -5l-47 -9l-58 -15q-167 106 -317 168l-11 14q-9 51 26 58z" />
    <glyph glyph-name="Iacute" unicode="&#xcd;" horiz-adv-x="1118" 
d="M1556 1281h10q47 0 65 -41l3 -16q0 -36 -40 -53q-20 -7 -58 -7q-86 -29 -203 -223q-109 -193 -240 -473h1q97 -3 148 62q19 28 33 175q13 67 67 75h3q47 -18 50 -65l4 -29q18 -246 -150 -332q-123 -48 -205 -38q-35 -3 -35 -15q-87 -164 -347 -266q-135 -48 -275 -48
q-221 0 -328 142q-32 55 -32 111v5q0 117 106 187q53 30 104 30h18q79 0 119 -68q19 -32 19 -70v-13q0 -86 -95 -117q-79 -17 -91 -25q14 -24 73 -49q43 -12 79 -12h10q208 0 339 255l-2 1q-132 38 -190 122q-59 79 -59 181q0 263 392 457q354 157 707 157zM657 587
q10 -59 96 -84l22 -5q102 229 245 426q41 57 143 156l32 29h-1q-171 -46 -339 -190q-198 -187 -198 -332zM1358 1497l96 -14q118 -18 113 -49l-3 -21q-5 -32 -187 -116l-167 -109l-65 15l-48 7l-4 5h-4q107 149 241 277z" />
    <glyph glyph-name="Icircumflex" unicode="&#xce;" horiz-adv-x="1100" 
d="M1556 1281h10q47 0 65 -41l3 -16q0 -36 -40 -53q-20 -7 -58 -7q-86 -29 -203 -223q-109 -193 -240 -473h1q97 -3 148 62q19 28 33 175q13 67 67 75h3q47 -18 50 -65l4 -29q18 -246 -150 -332q-123 -48 -205 -38q-35 -3 -35 -15q-87 -164 -347 -266q-135 -48 -275 -48
q-221 0 -328 142q-32 55 -32 111v5q0 117 106 187q53 30 104 30h18q79 0 119 -68q19 -32 19 -70v-13q0 -86 -95 -117q-79 -17 -91 -25q14 -24 73 -49q43 -12 79 -12h10q208 0 339 255l-2 1q-132 38 -190 122q-59 79 -59 181q0 263 392 457q354 157 707 157zM657 587
q10 -59 96 -84l22 -5q102 229 245 426q41 57 143 156l32 29h-1q-171 -46 -339 -190q-198 -187 -198 -332zM1087 1519l107 31q43 12 61 -53l21 -86q15 -46 108 -144q5 -52 -31 -63q-83 -24 -206 149q-8 -3 -106 -193l-26 -12l-4 -1q-40 -6 -49 27l-6 19q-6 22 99 304
q12 16 32 22z" />
    <glyph glyph-name="Idieresis" unicode="&#xcf;" horiz-adv-x="1100" 
d="M1556 1281h10q47 0 65 -41l3 -16q0 -36 -40 -53q-20 -7 -58 -7q-86 -29 -203 -223q-109 -193 -240 -473h1q97 -3 148 62q19 28 33 175q13 67 67 75h3q47 -18 50 -65l4 -29q18 -246 -150 -332q-123 -48 -205 -38q-35 -3 -35 -15q-87 -164 -347 -266q-135 -48 -275 -48
q-221 0 -328 142q-32 55 -32 111v5q0 117 106 187q53 30 104 30h18q79 0 119 -68q19 -32 19 -70v-13q0 -86 -95 -117q-79 -17 -91 -25q14 -24 73 -49q43 -12 79 -12h10q208 0 339 255l-2 1q-132 38 -190 122q-59 79 -59 181q0 263 392 457q354 157 707 157zM657 587
q10 -59 96 -84l22 -5q102 229 245 426q41 57 143 156l32 29h-1q-171 -46 -339 -190q-198 -187 -198 -332zM1326 1481q82 0 124 -112v-32q-21 -136 -136 -136h-8q-136 21 -136 136v20q0 81 112 124h44zM984 1438q103 0 140 -116v-28q0 -92 -100 -132l-40 -8q-140 24 -140 136
v24q0 83 116 124h24z" />
    <glyph glyph-name="Eth" unicode="&#xd0;" horiz-adv-x="1522" 
 />
    <glyph glyph-name="Ntilde" unicode="&#xd1;" horiz-adv-x="1327" 
d="M1277 1297h3q42 0 59 -49l1 -16v-6l-22 -90q-22 -119 -22 -287q0 -178 10 -440q51 111 76 163q104 314 208 463q76 103 143 103q42 0 85 -56q24 -45 24 -62v-3q-13 -109 -123 -140q-55 -24 -65 -49q-75 -206 -201 -505l-103 -201l10 -69v-1q0 -34 -74 -60
q-163 -81 -176 -81h-11q-28 0 -41 36q-49 315 -49 548v22q0 181 23 302v1h-2q-83 -169 -200 -420q-74 -135 -174 -255q-219 -247 -452 -247q-201 11 -276 164q-16 48 -16 91v8q0 130 131 211q48 20 86 20h17q101 0 151 -78q16 -29 16 -62v-12q0 -83 -119 -125
q-84 -19 -106 -27l-3 -5v-5q0 -12 31 -30q30 -18 68 -18h3q164 0 356 234q109 154 216 360q155 309 242 425q28 51 162 186q70 62 114 62zM1113 1449h35q42 0 255 -113h24q51 0 131 95h17q42 0 42 -41v-18q0 -103 -142 -190l-42 -6h-47q-47 0 -226 107l-53 6q-49 0 -125 -89
l-35 -12q-42 0 -42 41v18q0 114 142 190q24 12 66 12z" />
    <glyph glyph-name="Ograve" unicode="&#xd2;" horiz-adv-x="1001" 
d="M1176 1284h8q163 0 224 -117q19 -38 19 -83v-8q0 -83 -45 -102q-10 -5 -23 -5h-4q-47 0 -53 60v1l6 48q0 58 -63 82q-23 6 -43 6h-22q-163 0 -373 -222q-88 -101 -139 -181q-250 -398 -260 -570v-17q0 -71 79 -71h5q143 0 347 171q130 140 206 273q122 253 122 359v8
q0 45 -36 45h-5q-109 0 -284 -247q-131 -194 -202 -413q-29 -117 -45 -117q-13 -16 -35 -16q-39 0 -55 44l-4 30q0 85 100 305q70 145 180 292q189 236 350 236h10q105 0 157 -116q16 -48 16 -93q-16 -294 -196 -530q-305 -350 -636 -350h-9q-190 0 -285 178q-40 82 -40 182
v11q0 305 372 625q205 158 314 205q196 97 342 97zM884 1473l111 36q49 -15 190 -133l126 -116l-3 -6l-53 -17l-65 -26q-209 97 -390 147l-15 15q-18 57 21 70z" />
    <glyph glyph-name="Oacute" unicode="&#xd3;" horiz-adv-x="1001" 
d="M1176 1284h8q163 0 224 -117q19 -38 19 -83v-8q0 -83 -45 -102q-10 -5 -23 -5h-4q-47 0 -53 60v1l6 48q0 58 -63 82q-23 6 -43 6h-22q-163 0 -373 -222q-88 -101 -139 -181q-250 -398 -260 -570v-17q0 -71 79 -71h5q143 0 347 171q130 140 206 273q122 253 122 359v8
q0 45 -36 45h-5q-109 0 -284 -247q-131 -194 -202 -413q-29 -117 -45 -117q-13 -16 -35 -16q-39 0 -55 44l-4 30q0 85 100 305q70 145 180 292q189 236 350 236h10q105 0 157 -116q16 -48 16 -93q-16 -294 -196 -530q-305 -350 -636 -350h-9q-190 0 -285 178q-40 82 -40 182
v11q0 305 372 625q205 158 314 205q196 97 342 97zM1217 1492l115 -21q141 -25 134 -58l-6 -23q-7 -34 -232 -112l-210 -107l-77 19l-58 10l-4 6l-5 1q139 153 310 282z" />
    <glyph glyph-name="Ocircumflex" unicode="&#xd4;" horiz-adv-x="1001" 
d="M922 1536h16q51 0 92 -110q32 -64 97 -138l5 -17h53q163 0 220 -136q9 -26 9 -50v-29q0 -84 -60 -98h-16q-48 7 -48 59l5 57v3q0 52 -79 74l-31 2h-8q-236 0 -513 -396q-258 -411 -258 -585q0 -67 69 -67h22q149 0 365 232q213 252 287 506l7 62q0 45 -41 45
q-124 0 -332 -324q-82 -146 -136 -294q-40 -158 -64 -158q-1 -5 -26 -9q-51 0 -60 69v12q21 186 210 492q221 327 420 327q124 0 168 -143q7 -29 7 -53v-23q0 -196 -237 -491q-321 -369 -582 -369h-20q-198 0 -289 205q-26 67 -26 141v34q0 296 389 623q119 89 197 136
l-3 17v14q60 280 76 323q13 26 79 47zM903 1347l-53 -160h3q84 40 150 59v3q-42 37 -100 98z" />
    <glyph glyph-name="Otilde" unicode="&#xd5;" horiz-adv-x="1008" 
d="M1176 1284h8q163 0 224 -117q19 -38 19 -83v-8q0 -83 -45 -102q-10 -5 -23 -5h-4q-47 0 -53 60v1l6 48q0 58 -63 82q-23 6 -43 6h-22q-163 0 -373 -222q-88 -101 -139 -181q-250 -398 -260 -570v-17q0 -71 79 -71h5q143 0 347 171q130 140 206 273q122 253 122 359v8
q0 45 -36 45h-5q-109 0 -284 -247q-131 -194 -202 -413q-29 -117 -45 -117q-13 -16 -35 -16q-39 0 -55 44l-4 30q0 85 100 305q70 145 180 292q189 236 350 236h10q105 0 157 -116q16 -48 16 -93q-16 -294 -196 -530q-305 -350 -636 -350h-9q-190 0 -285 178q-40 82 -40 182
v11q0 305 372 625q205 158 314 205q196 97 342 97zM968 1470h31q38 0 227 -101h21q45 0 116 85h16q37 0 37 -37v-16q0 -91 -127 -169l-37 -5h-42q-41 0 -200 95l-48 5q-43 0 -110 -79l-32 -10q-37 0 -37 36v16q0 102 127 169q20 11 58 11z" />
    <glyph glyph-name="Odieresis" unicode="&#xd6;" horiz-adv-x="1008" 
d="M1176 1284h8q163 0 224 -117q19 -38 19 -83v-8q0 -83 -45 -102q-10 -5 -23 -5h-4q-47 0 -53 60v1l6 48q0 58 -63 82q-23 6 -43 6h-22q-163 0 -373 -222q-88 -101 -139 -181q-250 -398 -260 -570v-17q0 -71 79 -71h5q143 0 347 171q130 140 206 273q122 253 122 359v8
q0 45 -36 45h-5q-109 0 -284 -247q-131 -194 -202 -413q-29 -117 -45 -117q-13 -16 -35 -16q-39 0 -55 44l-4 30q0 85 100 305q70 145 180 292q189 236 350 236h10q105 0 157 -116q16 -48 16 -93q-16 -294 -196 -530q-305 -350 -636 -350h-9q-190 0 -285 178q-40 82 -40 182
v11q0 305 372 625q205 158 314 205q196 97 342 97zM964 1480q79 0 120 -104l4 -32v-8q0 -98 -116 -136h-28q-98 0 -136 112v36q0 99 116 132h40zM1286 1495h4q140 -20 140 -140v-4q0 -97 -112 -136l-28 -4q-102 0 -140 116l-4 24q23 144 140 144z" />
    <glyph glyph-name="multiply" unicode="&#xd7;" horiz-adv-x="1706" 
 />
    <glyph glyph-name="Oslash" unicode="&#xd8;" horiz-adv-x="1151" 
 />
    <glyph glyph-name="Ugrave" unicode="&#xd9;" horiz-adv-x="1626" 
d="M1524 1386h31q38 0 99 -108l51 -77q0 9 277 33q31 -15 31 -43v-8q-15 -41 -137 -236q-362 -599 -429 -726q-39 -74 -39 -99q47 7 408 350q144 132 209 132q63 -6 63 -41v-11q0 -31 -63 -61q-77 -61 -342 -321q-185 -183 -335 -183q-122 0 -169 125l-8 51
q-150 -178 -308 -178q-157 0 -202 159q-8 39 -8 72q0 176 336 591q115 167 115 237v17q0 65 -74 88q-26 8 -51 8h-7q-65 0 -174 -46v-3q48 0 82 -122q12 -57 12 -112v-45q0 -212 -209 -371q-111 -68 -225 -68q-152 0 -210 128q-19 37 -19 89v17q0 232 361 514
q212 144 385 144h31q182 0 296 -174q34 -70 34 -149q0 -174 -242 -487l-178 -258q-43 -73 -45 -106h7q177 0 598 709l157 263q-39 12 -228 199q-45 39 -45 61q0 41 56 41q33 5 108 5zM359 648v-30q0 -51 46 -74q9 -4 27 -4h12q93 0 202 161q92 162 92 277l-8 80l8 28h-2
q-62 -27 -225 -176q-152 -164 -152 -262z" />
    <glyph glyph-name="Uacute" unicode="&#xda;" horiz-adv-x="1681" 
d="M984 1281h10q187 0 298 -160q43 -76 43 -160q0 -150 -158 -375q-62 -91 -214 -301q-93 -136 -93 -179h14q97 0 294 254q181 244 321 496l199 336q15 17 65 17l207 23q35 0 44 -45q0 -17 -50 -95q-436 -722 -497 -831q-51 -96 -64 -142h1q41 8 228 179q259 246 309 271
q46 33 79 33h3q49 0 62 -31q3 -6 3 -17v-2q0 -31 -44 -49q-44 -26 -212 -189q-204 -201 -260 -238q-112 -90 -219 -90q-123 0 -172 118q-8 33 -8 57v1h-4q-146 -177 -304 -177q-144 0 -197 133q-14 47 -14 97q0 167 298 542q153 202 153 286v11q0 62 -56 88q-34 14 -74 14
q-75 0 -182 -49v-1q40 0 69 -68q31 -79 31 -188q0 -224 -185 -374q-113 -86 -251 -86q-164 0 -219 151q-9 39 -9 69v7q0 229 342 504q223 160 413 160zM358 630v-15q0 -64 49 -84q5 -2 27 -4q100 0 202 146q48 68 82 176q20 75 20 126l-6 70q0 12 9 33h-1q-73 -36 -207 -157
q-175 -173 -175 -291zM1533 1545l129 -41q157 -50 144 -91l-9 -29q-13 -42 -281 -116l-254 -112l-86 33l-64 21l-4 7l-6 2q180 181 393 325z" />
    <glyph glyph-name="Ucircumflex" unicode="&#xdb;" horiz-adv-x="1665" 
d="M1495 1461h70q49 0 72 -53q13 -137 29 -193q16 -43 20 -44q6 39 74 39l212 24q32 0 41 -45v-3q0 -20 -108 -193q-394 -647 -477 -811l-22 -62q44 5 405 345q147 137 207 137h12q50 0 58 -41v-14q0 -28 -63 -55q-81 -68 -339 -321q-192 -186 -333 -186q-128 0 -174 125
l-8 51h-4q-144 -176 -292 -176h-23q-137 0 -189 147q-10 45 -10 85q0 170 329 581q122 168 122 245v13q0 66 -65 89q-16 8 -62 12q-64 0 -181 -48v-3q75 0 96 -219v-55q0 -215 -205 -371q-106 -71 -222 -71h-19q-160 0 -212 166l-5 46v27q0 228 376 519q206 135 386 135
q144 0 246 -94l14 -10q7 0 155 205q49 77 89 77zM1497 1285l-132 -154q-47 -45 -47 -61q17 -65 17 -110q0 -165 -206 -444q-226 -307 -254 -384l-5 -24h18q146 0 508 574l241 413q-54 0 -114 132zM359 631v-19q0 -53 39 -75q15 -9 41 -9q112 0 228 200q71 146 71 241l-8 80
l8 26h-2q-72 -31 -244 -195q-89 -103 -113 -164q-20 -47 -20 -85z" />
    <glyph glyph-name="Udieresis" unicode="&#xdc;" horiz-adv-x="1673" 
d="M984 1281h10q187 0 298 -160q43 -76 43 -160q0 -150 -158 -375q-62 -91 -214 -301q-93 -136 -93 -179h14q97 0 294 254q181 244 321 496l199 336q15 17 65 17l207 23q35 0 44 -45q0 -17 -50 -95q-436 -722 -497 -831q-51 -96 -64 -142h1q41 8 228 179q259 246 309 271
q46 33 79 33h3q49 0 62 -31q3 -6 3 -17v-2q0 -31 -44 -49q-44 -26 -212 -189q-204 -201 -260 -238q-112 -90 -219 -90q-123 0 -172 118q-8 33 -8 57v1h-4q-146 -177 -304 -177q-144 0 -197 133q-14 47 -14 97q0 167 298 542q153 202 153 286v11q0 62 -56 88q-34 14 -74 14
q-75 0 -182 -49v-1q40 0 69 -68q31 -79 31 -188q0 -224 -185 -374q-113 -86 -251 -86q-164 0 -219 151q-9 39 -9 69v7q0 229 342 504q223 160 413 160zM358 630v-15q0 -64 49 -84q5 -2 27 -4q100 0 202 146q48 68 82 176q20 75 20 126l-6 70q0 12 9 33h-1q-73 -36 -207 -157
q-175 -173 -175 -291zM1354 1364q79 0 120 -104l4 -32v-8q0 -98 -116 -136h-28q-98 0 -136 112v36q0 99 116 132h40zM1594 1371h4q140 -20 140 -140v-4q0 -97 -112 -136l-28 -4q-102 0 -140 116l-4 24q23 144 140 144z" />
    <glyph glyph-name="Yacute" unicode="&#xdd;" horiz-adv-x="1204" 
d="M785 1163h11q168 0 252 -142q28 -59 28 -122q0 -113 -111 -268l-134 -183q-20 -35 -20 -43q62 0 260 202l99 109q80 99 337 348q75 62 78 62q32 22 61 24q44 0 58 -42l1 -15q0 -30 -89 -108q-70 -72 -107 -150q-78 -141 -157 -435q-82 -209 -184 -305q-64 -76 -127 -105
q-210 -121 -448 -121q-257 0 -347 156q-23 48 -23 96v11q0 125 127 194q44 16 84 16h7q104 0 149 -86q7 -17 10 -51q0 -85 -79 -129q-26 -6 -95 -15l-23 -10q0 -24 81 -55q27 -8 84 -11q129 0 256 128q68 79 116 188l23 40v1h-1q-89 -54 -179 -54q-126 0 -175 114
q-15 36 -15 68v23q0 116 126 281q99 129 127 179q15 27 15 42q0 33 -55 41l-23 2q-65 0 -165 -44v-1h2l9 1q42 0 59 -50l4 -52q0 -230 -197 -378q-88 -53 -168 -53h-26q-97 0 -151 82q-18 38 -18 75v5q0 187 264 388q219 152 389 152zM258 623q0 -41 32 -41l12 -1
q91 0 197 159q41 71 61 160q0 20 20 67l13 13h-2q-92 -43 -214 -152q-119 -122 -119 -205zM1194 1392l122 -30q149 -36 139 -71l-8 -25q-10 -36 -258 -108l-234 -103l-82 25l-61 15l-4 6l-6 2q162 158 355 287z" />
    <glyph glyph-name="Thorn" unicode="&#xde;" horiz-adv-x="1526" 
 />
    <glyph glyph-name="germandbls" unicode="&#xdf;" horiz-adv-x="922" 
d="M899 1245h46q106 0 154 -112q21 -61 14 -119q-9 -178 -312 -419l-4 -3q111 -168 92 -291q302 286 368 286h5q66 -7 66 -51q0 -32 -107 -97q-467 -465 -556 -465q-42 -20 -113 -20h-20q-145 0 -199 143l-5 61q0 72 107 117l26 5q112 -32 112 -97q56 75 56 363v51
q0 91 209 255q129 115 107 199q-15 30 -56 26q-111 0 -434 -654l-520 -949q-44 -61 -230 -61h-5q-56 0 -56 46v5q0 39 245 439l219 388q-40 0 -51 56v5q0 38 194 224q86 99 281 414q199 255 367 255z" />
    <glyph glyph-name="agrave" unicode="&#xe0;" horiz-adv-x="907" 
d="M598 860h133q28 0 34 -40l2 -50l-2 -140l-2 -2l2 -2l113 6q15 -5 27 -27v-20q0 -9 -201 -411q64 56 269 251q146 131 203 135h2q47 0 63 -27l3 -11v-14q0 -24 -63 -56q-88 -73 -360 -334q-147 -131 -236 -131h-16q-100 0 -138 99q0 7 -5 7q-115 -104 -209 -104h-25
q-126 0 -183 131q-9 31 -9 57v22q0 244 377 413q71 20 118 20h13q77 0 128 -47h5q0 6 11 20q-5 41 -85 202l-3 6v13q10 34 34 34zM219 97q50 7 154 104q172 195 194 280q0 27 -34 29q-45 -8 -195 -198q-119 -169 -119 -215z" />
    <glyph glyph-name="aacute" unicode="&#xe1;" horiz-adv-x="899" 
d="M496 632h7q83 0 135 -50h2q6 21 24 33q0 5 206 17q20 0 35 -29v-12v-5q0 -10 -55 -116l-152 -303h1q64 57 249 234q171 159 235 159q49 -8 49 -19q12 -12 12 -27q0 -29 -44 -50q-47 -25 -316 -286q-189 -191 -308 -191q-100 0 -141 87l-6 21h-1q-115 -107 -225 -107
q-127 0 -186 114q-17 38 -17 84v7q0 240 353 407q81 32 143 32zM218 96q117 26 303 290q44 70 45 95q0 29 -33 29q-22 0 -88 -69q-87 -97 -155 -200q-67 -98 -72 -145zM654 846l86 -18q106 -21 100 -49l-4 -19q-6 -29 -175 -95l-157 -90l-58 16l-43 9l-3 4l-4 1
q104 130 233 238z" />
    <glyph glyph-name="acircumflex" unicode="&#xe2;" horiz-adv-x="899" 
d="M612 874h106q35 0 47 -29q9 -154 29 -217l84 4q16 -5 27 -26v-20q-20 -52 -201 -409v-2q66 56 269 250q150 135 208 135q56 0 63 -38v-13q0 -25 -61 -55q-89 -73 -363 -338q-146 -129 -242 -129h-9q-100 0 -138 100l-2 6q-120 -103 -215 -103h-24q-123 0 -181 130
q-9 31 -9 57v29q0 226 359 400l70 20q112 178 158 239q12 9 25 9zM621 699l-63 -71q49 -15 81 -42q5 12 22 31q-20 30 -38 82h-2zM219 97q38 0 147 98q186 209 201 288q0 24 -34 28q-60 -21 -199 -206q-115 -163 -115 -208z" />
    <glyph glyph-name="atilde" unicode="&#xe3;" horiz-adv-x="899" 
d="M496 632h7q83 0 135 -50h2q6 21 24 33q0 5 206 17q20 0 35 -29v-12v-5q0 -10 -55 -116l-152 -303h1q64 57 249 234q171 159 235 159q49 -8 49 -19q12 -12 12 -27q0 -29 -44 -50q-47 -25 -316 -286q-189 -191 -308 -191q-100 0 -141 87l-6 21h-1q-115 -107 -225 -107
q-127 0 -186 114q-17 38 -17 84v7q0 240 353 407q81 32 143 32zM218 96q117 26 303 290q44 70 45 95q0 29 -33 29q-22 0 -88 -69q-87 -97 -155 -200q-67 -98 -72 -145zM517 819l27 4q33 3 210 -74l18 2q40 4 92 93l14 1q33 4 37 -31l1 -16q10 -88 -92 -175l-31 -9l-37 -4
q-36 -4 -186 71l-42 1q-38 -5 -88 -88l-27 -13q-32 -4 -36 32l-2 15q-11 98 92 175q17 13 50 16z" />
    <glyph glyph-name="adieresis" unicode="&#xe4;" horiz-adv-x="899" 
d="M531 857q67 7 112 -78l4 1q29 62 91 69l4 1q120 -4 132 -107v-3q10 -83 -81 -128l-23 -6q-85 -10 -126 79q-39 -63 -95 -70l-7 -1q-82 -9 -126 83l-3 31q-10 85 85 125zM496 632h7q83 0 135 -50h2q6 21 24 33q0 5 206 17q20 0 35 -29v-12v-5q0 -10 -55 -116l-152 -303h1
q64 57 249 234q171 159 235 159q49 -8 49 -19q12 -12 12 -27q0 -29 -44 -50q-47 -25 -316 -286q-189 -191 -308 -191q-100 0 -141 87l-6 21h-1q-115 -107 -225 -107q-127 0 -186 114q-17 38 -17 84v7q0 240 353 407q81 32 143 32zM218 96q117 26 303 290q44 70 45 95
q0 29 -33 29q-22 0 -88 -69q-87 -97 -155 -200q-67 -98 -72 -145z" />
    <glyph glyph-name="aring" unicode="&#xe5;" horiz-adv-x="907" 
d="M643 869q94 0 138 -114l3 -31v-3q0 -112 -117 -149l-35 -3h-3q-101 0 -142 114l-3 27v18q0 105 128 141h31zM560 721v-4q0 -60 76 -72q72 17 72 72q0 63 -72 76h-4q-72 -11 -72 -72zM496 632h7q83 0 135 -50h2q6 21 24 33q0 5 206 17q20 0 35 -29v-12v-5q0 -10 -55 -116
l-152 -303h1q64 57 249 234q171 159 235 159q49 -8 49 -19q12 -12 12 -27q0 -29 -44 -50q-47 -25 -316 -286q-189 -191 -308 -191q-100 0 -141 87l-6 21h-1q-115 -107 -225 -107q-127 0 -186 114q-17 38 -17 84v7q0 240 353 407q81 32 143 32zM218 96q117 26 303 290
q44 70 45 95q0 29 -33 29q-22 0 -88 -69q-87 -97 -155 -200q-67 -98 -72 -145z" />
    <glyph glyph-name="ae" unicode="&#xe6;" horiz-adv-x="1241" 
d="M469 645h25q136 0 184 -130q9 -32 9 -62v-8q216 198 394 198q109 0 148 -90q13 -26 13 -67q0 -155 -275 -257q-23 -10 -114 -29l-25 -79h20q129 0 370 219l185 157q95 77 135 77q63 0 63 -52q0 -22 -61 -53q-65 -50 -269 -243q-233 -191 -300 -199q-65 -27 -136 -27
q-159 0 -231 135q-70 -49 -161 -49q-110 -86 -243 -86q-160 0 -213 161l-4 47v21q0 151 197 306q160 110 289 110zM240 140v-16h5q36 0 77 29v14q0 70 97 102q25 0 48 40q81 106 81 177q0 29 -18 41h-10q-81 -19 -216 -236q-64 -104 -64 -151zM919 334h1q121 62 159 143
q11 24 11 41l-2 6q-74 -28 -165 -181z" />
    <glyph glyph-name="ccedilla" unicode="&#xe7;" horiz-adv-x="533" 
d="M437 632h25q105 0 140 -98l2 -33v-15q0 -79 -98 -111h-27q-66 0 -92 71v3h-2q-126 -159 -165 -310h19q75 0 401 324q115 107 164 107q59 0 59 -49q0 -22 -63 -54q-47 -34 -219 -207q-167 -159 -234 -183q-70 -38 -100 -38v-2q19 -28 19 -60v-9q0 -140 -211 -180l-79 -4
h-8q-38 7 -38 34v10q0 30 42 34q110 0 152 58l2 12q0 26 -77 26q-17 13 -17 31q0 11 52 83q-81 60 -81 169v3q0 220 311 363q73 25 123 25z" />
    <glyph glyph-name="egrave" unicode="&#xe8;" horiz-adv-x="649" 
d="M426 806h30q38 0 99 -112q102 -155 102 -201v-19q0 -165 -305 -268q-88 -18 -88 -23q-23 -65 -23 -77h12q132 0 336 186l260 219q77 52 101 52h10q58 0 58 -48v-4q0 -24 -57 -50q-86 -72 -261 -234q-230 -198 -316 -215q-61 -25 -125 -25h-29q-156 0 -221 154
q-9 32 -9 63v20q0 189 298 355q103 47 138 47v2q-144 102 -158 120l-5 16q0 38 52 38q31 4 101 4zM325 323v-2q36 5 129 92q40 52 40 89v7h-2q-66 -21 -162 -177z" />
    <glyph glyph-name="eacute" unicode="&#xe9;" horiz-adv-x="652" 
d="M460 804h29q148 0 148 -18l6 -25q0 -25 -60 -61l-91 -67h22q105 0 140 -120l3 -34v-4q0 -169 -316 -272q-79 -14 -79 -22l-21 -72v-2q139 0 314 158q59 44 282 237q78 58 118 63q63 -7 63 -40v-14q0 -23 -63 -55q-86 -70 -264 -238q-231 -192 -310 -206q-60 -25 -133 -25
h-2q-178 0 -237 156q-9 30 -9 60v21q0 185 291 355q65 114 138 212q15 13 31 13zM327 321q56 19 138 109q29 41 29 72v4l-2 3v2q-80 -36 -167 -188z" />
    <glyph glyph-name="ecircumflex" unicode="&#xea;" horiz-adv-x="659" 
d="M467 825h93q52 -13 52 -50v-65q0 -118 38 -179q7 -23 7 -47v-14q0 -148 -280 -255l-113 -27l-23 -79h19q130 0 368 217l218 185q78 54 111 54q61 -6 61 -40v-11q0 -25 -61 -56q-101 -82 -273 -245q-210 -176 -298 -199q-70 -27 -140 -27q-172 0 -235 152q-11 30 -11 62
v26q0 177 278 345q153 232 165 244zM442 621h66l-21 70l-3 3zM322 321h3q63 24 135 104q34 44 34 79v7h-2q-75 -28 -170 -190z" />
    <glyph glyph-name="edieresis" unicode="&#xeb;" horiz-adv-x="664" 
d="M420 807h12q84 0 121 -97l3 -10h1q41 70 109 70h15q87 0 123 -103l2 -30v-2q0 -85 -93 -122q-13 -7 -47 -7l-11 3l1 -16v-18q0 -160 -286 -262l-106 -28q-22 -67 -22 -78h2q142 0 336 178q60 46 244 205q94 74 131 75q55 0 63 -40v-14q0 -23 -57 -50q-73 -58 -259 -232
q-151 -131 -244 -184q-106 -58 -203 -58h-16q-164 0 -230 152q-9 40 -9 65v21q0 186 292 351l30 14v2q-29 38 -29 79v3q0 93 95 128zM325 321h2q130 66 163 156q4 9 4 25v4l-2 3v2q-74 -31 -167 -186v-4z" />
    <glyph glyph-name="igrave" unicode="&#xec;" horiz-adv-x="563" 
 />
    <glyph glyph-name="iacute" unicode="&#xed;" horiz-adv-x="563" 
d="M560 697q9 0 20 -9q12 -12 12 -27v-2q0 -11 -8 -24l-98 -180q-80 -144 -88 -159q-30 -54 -69 -127q-16 -33 -28 -60v0q27 17 85 67q27 24 97 92q143 144 175 175q94 90 120 110q75 63 119 63q6 0 26 -4q14 0 27 -14q7 -10 7 -23q0 -24 -27 -37q-20 -12 -46 -32
q-28 -23 -82 -73q-66 -65 -98 -97q-73 -79 -144 -151l-23 -23q-77 -73 -108 -97q-114 -94 -214 -94q-92 0 -137 71q-24 41 -24 98q0 65 65 195h-1q-6 -2 -12 -2h-1q-37 0 -45 24q-4 10 -4 18v2q2 19 34 58q39 42 63 67q110 110 110 111q30 33 51 57q6 9 20 11q52 4 59 4v1v0
zM607 900l84 -25q103 -32 95 -58l-6 -20q-8 -27 -182 -78l-165 -75l-56 21l-42 13l-3 5l-4 1q116 119 254 216h25z" />
    <glyph glyph-name="icircumflex" unicode="&#xee;" horiz-adv-x="563" 
d="M545 994h107q35 0 45 -54l-3 -96q4 -56 59 -152v-5q-7 -47 -45 -47q-64 0 -126 135q-20 43 -20 58q-90 -87 -100 -106h38l36 1q58 0 58 -34v-4q-9 -41 -144 -274q-93 -173 -141 -271h2q21 0 381 361q146 139 200 139h17q52 0 52 -45q0 -22 -70 -60q-96 -81 -371 -370
l-114 -96q-95 -74 -193 -74q-107 0 -146 103q-11 33 -11 76q0 46 61 182v2h-18q-27 0 -45 29v27q0 29 108 118q208 216 208 240q105 150 152 210z" />
    <glyph glyph-name="idieresis" unicode="&#xef;" horiz-adv-x="578" 
d="M554 895h12q69 0 95 -79l5 -24q0 -70 -75 -102l3 -2v-3q0 -27 -46 -105q-205 -365 -239 -446q28 3 439 413q100 89 152 89q61 0 61 -44q0 -22 -68 -61q-59 -41 -364 -363l-63 -56q-136 -121 -246 -121h-3q-113 0 -151 105q-9 37 -9 66q0 62 65 191h-23q-45 9 -45 40v11
q0 32 101 115q115 117 168 178v2q-42 29 -42 82v2q0 77 87 103h28q38 0 74 -40h2q30 49 82 49z" />
    <glyph glyph-name="eth" unicode="&#xf0;" horiz-adv-x="795" 
 />
    <glyph glyph-name="ntilde" unicode="&#xf1;" horiz-adv-x="977" 
d="M772 631h7q92 0 135 -91q17 -40 17 -87v-11q0 -105 -123 -255v-1q58 49 263 238q113 99 168 128q22 9 36 9q40 0 55 -21q7 -12 7 -24q0 -29 -43 -49q-51 -29 -282 -252q-230 -228 -344 -228q-104 0 -149 115q-10 35 -10 64v13q0 114 146 271l4 6q-97 -76 -211 -213
q-98 -119 -182 -236q-9 -12 -87 -12l-189 -9q-20 0 -34 26l-3 12v2q0 22 33 61l178 256v1q-24 -15 -42 -15q-50 10 -50 47q0 40 71 102q147 152 228 152q82 0 112 -104q6 -26 6 -59v-4q174 168 283 168zM508 803l27 3q31 3 200 -82l18 2q38 3 90 92l13 1q31 3 35 -33l1 -16
q8 -91 -91 -177l-31 -8l-36 -3q-34 -3 -177 79l-41 1q-37 -3 -86 -87l-26 -12q-31 -3 -34 33l-2 16q-9 100 92 177q16 12 48 14z" />
    <glyph glyph-name="ograve" unicode="&#xf2;" horiz-adv-x="688" 
d="M478 636h4q142 0 192 -116q15 -41 15 -83q0 -57 -26 -118q249 244 317 244h3q62 -6 62 -41v-9q0 -26 -46 -47q-50 -33 -171 -150q-179 -177 -205 -185q-85 -59 -175 -59h-4q-116 -85 -229 -85h-19q-126 0 -192 112q-24 48 -24 103v7q0 151 183 304q170 123 315 123z
M236 126v-17h10q27 0 73 27v10q0 73 90 106q35 7 35 15q101 128 101 199v2q0 45 -26 45q-50 0 -172 -162q-111 -167 -111 -225zM364 831h100q36 -26 120 -160l72 -128l-4 -4h-48l-60 -4q-145 135 -280 224l-8 16q0 52 36 52z" />
    <glyph glyph-name="oacute" unicode="&#xf3;" horiz-adv-x="688" 
d="M478 636h4q142 0 192 -116q15 -41 15 -83q0 -57 -26 -118q249 244 317 244h3q62 -6 62 -41v-9q0 -26 -46 -47q-50 -33 -171 -150q-179 -177 -205 -185q-85 -59 -175 -59h-4q-116 -85 -229 -85h-19q-126 0 -192 112q-24 48 -24 103v7q0 151 183 304q170 123 315 123z
M236 126v-17h10q27 0 73 27v10q0 73 90 106q35 7 35 15q101 128 101 199v2q0 45 -26 45q-50 0 -172 -162q-111 -167 -111 -225zM574 815l85 -22q105 -27 98 -54l-5 -19q-7 -28 -179 -87l-162 -82l-57 18l-42 11l-3 5l-4 1q110 125 244 227z" />
    <glyph glyph-name="ocircumflex" unicode="&#xf4;" horiz-adv-x="708" 
d="M489 815h90q53 -19 53 -72v-75q0 -79 13 -79q63 -53 63 -153v-2q0 -49 -23 -109q246 238 314 240q56 0 66 -38v-12q0 -28 -62 -59q-66 -50 -301 -280q-119 -103 -229 -103h-8q-115 -86 -235 -86h-11q-149 0 -208 140q-11 36 -11 65v25q0 151 201 311q84 53 131 72
q112 185 128 204q16 11 29 11zM514 676q-15 -23 -31 -56h40l11 -3v3q0 30 -20 56zM257 129v-18h7q36 0 74 30v13q0 69 97 101q25 0 45 37q84 110 84 180q0 41 -25 41q-68 -8 -198 -204q-84 -130 -84 -180z" />
    <glyph glyph-name="otilde" unicode="&#xf5;" horiz-adv-x="688" 
d="M372 798l27 -2q31 -3 183 -103l17 -1q38 -4 105 62l13 -2q31 -3 28 -34l-1 -13q-7 -77 -120 -132l-31 -2l-36 4q-34 3 -161 95l-40 9q-36 3 -99 -58l-27 -7q-32 3 -29 34l2 14q8 85 119 132q19 7 50 4zM478 636h4q142 0 192 -116q15 -41 15 -83q0 -57 -26 -118
q249 244 317 244h3q62 -6 62 -41v-9q0 -26 -46 -47q-50 -33 -171 -150q-179 -177 -205 -185q-85 -59 -175 -59h-4q-116 -85 -229 -85h-19q-126 0 -192 112q-24 48 -24 103v7q0 151 183 304q170 123 315 123zM236 126v-17h10q27 0 73 27v10q0 73 90 106q35 7 35 15
q101 128 101 199v2q0 45 -26 45q-50 0 -172 -162q-111 -167 -111 -225z" />
    <glyph glyph-name="odieresis" unicode="&#xf6;" horiz-adv-x="688" 
d="M478 636h4q142 0 192 -116q15 -41 15 -83q0 -57 -26 -118q249 244 317 244h3q62 -6 62 -41v-9q0 -26 -46 -47q-50 -33 -171 -150q-179 -177 -205 -185q-85 -59 -175 -59h-4q-116 -85 -229 -85h-19q-126 0 -192 112q-24 48 -24 103v7q0 151 183 304q170 123 315 123z
M236 126v-17h10q27 0 73 27v10q0 73 90 106q35 7 35 15q101 128 101 199v2q0 45 -26 45q-50 0 -172 -162q-111 -167 -111 -225zM435 771q51 0 78 -67l3 -21v-5q0 -64 -76 -89h-18q-63 0 -88 73v23q0 64 75 86h26zM629 762h3q91 -13 91 -91v-2q0 -63 -73 -88l-18 -3
q-67 0 -91 75l-3 16q15 93 91 93z" />
    <glyph glyph-name="divide" unicode="&#xf7;" horiz-adv-x="1706" 
 />
    <glyph glyph-name="oslash" unicode="&#xf8;" horiz-adv-x="795" 
 />
    <glyph glyph-name="ugrave" unicode="&#xf9;" horiz-adv-x="930" 
d="M667 851q35 0 41 -101l9 -122l203 11q17 0 29 -38v-7q-19 -46 -146 -264l-95 -164v-2q81 63 315 281q140 124 195 124q50 0 58 -33v-21q0 -20 -63 -54q-68 -53 -331 -309q-177 -155 -282 -155q-110 0 -152 104l-9 38q-121 -142 -238 -142q-107 0 -144 101q-9 21 -9 52
q0 57 42 151q-45 11 -45 57v4q0 32 106 112l155 149q0 5 231 16q15 0 29 -38v-7q-12 -34 -178 -302l-50 -85v-3q164 177 287 368q-15 11 -50 92q-43 74 -77 121v16q0 44 90 44q45 6 79 6z" />
    <glyph glyph-name="uacute" unicode="&#xfa;" horiz-adv-x="946" 
d="M530 638q21 0 35 -35v-10q0 -14 -68 -121l-170 -284q109 116 177 211q81 107 150 213q12 15 78 15l181 11q21 0 36 -35v-10q0 -12 -55 -102l-190 -333v-1q49 36 297 266q160 144 213 144q62 0 62 -45v-3q0 -25 -45 -47q-53 -32 -222 -197q-273 -278 -400 -278h-16
q-95 0 -142 94q-10 32 -10 50q-124 -144 -230 -144h-17q-84 0 -129 79q-17 38 -17 74q0 60 45 149q-23 0 -44 33l-4 21q0 38 75 94q95 83 178 169q9 10 58 10q38 4 174 12zM689 890l106 -28q131 -34 121 -66l-6 -23q-10 -34 -226 -100l-204 -96l-71 24l-53 14l-4 6l-5 1
q141 146 310 266z" />
    <glyph glyph-name="ucircumflex" unicode="&#xfb;" horiz-adv-x="930" 
d="M629 926h65q43 0 63 -54q0 -91 39 -212q4 0 9 -27l110 7q34 -15 34 -38v-5q0 -18 -106 -196l-135 -237h2q7 0 362 325q105 81 143 81q61 0 61 -40v-14q0 -22 -68 -59q-74 -58 -322 -302q-183 -158 -273 -158h-22q-105 0 -145 111q-5 29 -9 29q-121 -140 -225 -140h-20
q-102 0 -140 113l-4 41q0 57 42 148h-2q-43 15 -43 59q0 35 88 101q67 61 169 163q0 4 101 9q0 17 106 171q75 122 100 122zM524 644q30 0 43 -29l2 -9v-7q-7 -30 -106 -184l-126 -211v-3q182 198 304 395q19 35 57 35q-57 96 -65 136h-2q-79 -86 -107 -123z" />
    <glyph glyph-name="udieresis" unicode="&#xfc;" horiz-adv-x="938" 
d="M530 638q21 0 35 -35v-10q0 -14 -68 -121l-170 -284q109 116 177 211q81 107 150 213q12 15 78 15l181 11q21 0 36 -35v-10q0 -12 -55 -102l-190 -333v-1q49 36 297 266q160 144 213 144q62 0 62 -45v-3q0 -25 -45 -47q-53 -32 -222 -197q-273 -278 -400 -278h-16
q-95 0 -142 94q-10 32 -10 50q-124 -144 -230 -144h-17q-84 0 -129 79q-17 38 -17 74q0 60 45 149q-23 0 -44 33l-4 21q0 38 75 94q95 83 178 169q9 10 58 10q38 4 174 12zM532 808q58 0 89 -77l3 -24v-6q0 -73 -86 -101h-21q-73 0 -101 83v27q0 73 86 98h30zM703 815h3
q104 -15 104 -104v-3q0 -72 -84 -101l-20 -3q-76 0 -104 86l-3 18q17 107 104 107z" />
    <glyph glyph-name="yacute" unicode="&#xfd;" horiz-adv-x="1001" 
d="M361 629h5q92 0 133 -103q10 -33 10 -71q0 -106 -133 -303v-1q126 127 186 212q81 106 162 236q9 18 64 18l188 12q32 0 41 -44q0 -18 -48 -92l-181 -319q76 52 330 281q114 101 165 101h4q66 0 66 -48q0 -30 -44 -51q-90 -68 -289 -255q-163 -142 -283 -202l-78 -36
q-93 -165 -251 -365q-182 -215 -396 -215q-133 0 -195 112q-17 38 -17 79v3q0 206 403 369v3q-58 18 -85 60q-32 44 -32 107v2q0 94 72 217v0q-66 -56 -90 -56q-53 8 -53 51v3q0 38 129 158q134 137 217 137zM-39 -454v-11q5 -30 38 -30h7q92 0 218 215q30 46 74 128h-3
q-92 -38 -194 -103q-140 -105 -140 -199zM612 887l105 -16q128 -19 123 -52l-4 -24q-5 -34 -203 -125l-183 -118l-70 16l-52 8l-4 5l-5 1q117 162 263 300z" />
    <glyph glyph-name="thorn" unicode="&#xfe;" horiz-adv-x="971" 
 />
    <glyph glyph-name="ydieresis" unicode="&#xff;" horiz-adv-x="1001" 
d="M361 629h5q92 0 133 -103q10 -33 10 -71q0 -106 -133 -303v-1q126 127 186 212q81 106 162 236q9 18 64 18l188 12q32 0 41 -44q0 -18 -48 -92l-181 -319q76 52 330 281q114 101 165 101h4q66 0 66 -48q0 -30 -44 -51q-90 -68 -289 -255q-163 -142 -283 -202l-78 -36
q-93 -165 -251 -365q-182 -215 -396 -215q-133 0 -195 112q-17 38 -17 79v3q0 206 403 369v3q-58 18 -85 60q-32 44 -32 107v2q0 94 72 217v0q-66 -56 -90 -56q-53 8 -53 51v3q0 38 129 158q134 137 217 137zM-39 -454v-11q5 -30 38 -30h7q92 0 218 215q30 46 74 128h-3
q-92 -38 -194 -103q-140 -105 -140 -199zM444 791q65 14 117 -65l9 -26l2 -7q17 -81 -73 -133l-23 -5q-81 -17 -132 70l-7 29q-17 82 73 130zM702 791l3 1q120 8 141 -92l1 -3q17 -80 -70 -132l-22 -9q-85 -17 -136 72l-8 19q-6 124 91 144z" />
    <glyph glyph-name="Cacute" unicode="&#x106;" horiz-adv-x="1134" 
d="M746 1265h18q101 0 115 -38q6 -12 7 -28q0 -39 -46 -56q-7 -3 -22 -3q-138 0 -231 -48q-58 -26 -118 -69q-47 -31 -132 -121q-107 -132 -107 -225q0 -85 84 -108l32 -8q47 82 122 177q38 51 154 164q175 156 287 220q223 137 361 137h25q126 0 180 -107q11 -37 11 -70
q0 -190 -373 -441q-109 -66 -119 -66v-2q201 0 268 -118q18 -41 18 -92q0 -116 -111 -238q-133 -101 -280 -132q-100 -22 -186 -22q-224 0 -352 150q-72 91 -72 196v16q0 50 20 121q-93 21 -149 76q-82 83 -82 205v10q0 244 317 430q170 90 361 90zM741 606v-2q24 0 155 62
q88 49 188 130q137 129 150 157q90 114 90 167q0 25 -23 25h-9q-78 0 -303 -228q-163 -179 -248 -311zM557 216q0 -92 63 -116q39 -14 89 -14q217 10 335 103q89 86 91 179v3q-20 79 -98 81l-20 2q-148 0 -203 -238q-20 -54 -63 -54q-46 0 -60 49q-3 6 -3 20v18
q0 147 111 248h1v2h-1q-60 -18 -149 -33q-93 -159 -93 -250zM1321 1475l119 -11q146 -12 140 -46l-3 -23q-6 -34 -229 -133l-206 -126l-80 12l-60 5l-5 6h-5q130 166 295 309z" />
    <glyph glyph-name="cacute" unicode="&#x107;" horiz-adv-x="647" 
d="M474 632h12q132 0 164 -111l3 -35v-4q0 -84 -87 -122q-20 -6 -36 -6h-9q-67 0 -100 63q-5 11 -5 19h-2q-69 -87 -121 -190q-54 -114 -55.5 -124.5t1 -17t11.5 -8.5q73 0 311 173q190 162 247 191q44 33 84 33q50 0 61 -35l2 -10q0 -30 -45 -49q-52 -31 -218 -157
q-295 -258 -468 -258q-145 0 -207 129q-17 45 -17 94v5q0 209 274 362q115 58 200 58zM515 829l87 -11q107 -13 104 -41l-3 -20q-3 -29 -166 -108l-150 -103l-59 11l-44 6l-3 4l-4 1q94 137 213 256z" />
    <glyph glyph-name="Ccaron" unicode="&#x10c;" horiz-adv-x="1134" 
d="M746 1265h18q101 0 115 -38q6 -12 7 -28q0 -39 -46 -56q-7 -3 -22 -3q-138 0 -231 -48q-58 -26 -118 -69q-47 -31 -132 -121q-107 -132 -107 -225q0 -85 84 -108l32 -8q47 82 122 177q38 51 154 164q175 156 287 220q223 137 361 137h25q126 0 180 -107q11 -37 11 -70
q0 -190 -373 -441q-109 -66 -119 -66v-2q201 0 268 -118q18 -41 18 -92q0 -116 -111 -238q-133 -101 -280 -132q-100 -22 -186 -22q-224 0 -352 150q-72 91 -72 196v16q0 50 20 121q-93 21 -149 76q-82 83 -82 205v10q0 244 317 430q170 90 361 90zM741 606v-2q24 0 155 62
q88 49 188 130q137 129 150 157q90 114 90 167q0 25 -23 25h-9q-78 0 -303 -228q-163 -179 -248 -311zM557 216q0 -92 63 -116q39 -14 89 -14q217 10 335 103q89 86 91 179v3q-20 79 -98 81l-20 2q-148 0 -203 -238q-20 -54 -63 -54q-46 0 -60 49q-3 6 -3 20v18
q0 147 111 248h1v2h-1q-60 -18 -149 -33q-93 -159 -93 -250zM1041 1500l14 2q95 9 202 -169v-4l10 1q154 170 177 172l24 3q45 4 55 -46q3 -28 -192 -292q-17 -10 -51 -14l-111 -11q-45 -5 -64 45l-13 101q-5 45 -93 160l-1 4q5 44 43 48z" />
    <glyph glyph-name="ccaron" unicode="&#x10d;" horiz-adv-x="647" 
d="M474 632h12q132 0 164 -111l3 -35v-4q0 -84 -87 -122q-20 -6 -36 -6h-9q-67 0 -100 63q-5 11 -5 19h-2q-69 -87 -121 -190q-54 -114 -55.5 -124.5t1 -17t11.5 -8.5q73 0 311 173q190 162 247 191q44 33 84 33q50 0 61 -35l2 -10q0 -30 -45 -49q-52 -31 -218 -157
q-295 -258 -468 -258q-145 0 -207 129q-17 45 -17 94v5q0 209 274 362q115 58 200 58zM357 862h11q77 0 145 -170v-3h8q142 138 160 138h20q37 0 39 -46q0 -26 -184 -244q-15 -7 -43 -7h-90q-37 0 -47 46v92q0 40 -58 152v3q7 39 39 39z" />
    <glyph glyph-name="dcroat" unicode="&#x111;" horiz-adv-x="1004" 
 />
    <glyph glyph-name="Gbreve" unicode="&#x11e;" horiz-adv-x="1055" 
d="M1064 1282h8q129 0 192 -106q16 -40 16 -71v-21q0 -116 -161 -291q-122 -118 -204 -168q-107 -72 -241 -113l-8 -1q22 -14 79 -14q156 0 340 177q90 65 121 65h7q40 0 51 -43v-3q0 -27 -25 -57q-40 -71 -6 -135q-46 -202 -164 -311q-105 -120 -269 -179
q-105 -29 -205 -29h-34q-245 0 -353 137q-38 58 -38 127q0 122 122 183q40 15 79 15h9q102 0 143 -92q6 -22 6 -34v-17q0 -91 -113 -127q-57 -13 -62 -20v-2q53 -48 165 -48q140 0 292 182q24 31 70 105h-1q-57 -12 -100 -12h-17q-176 0 -276 107l-58 -4q-218 0 -338 159
q-53 76 -53 172v7q0 194 203 340q68 42 141 71q92 31 132 31q25 0 50 -24q14 -20 14 -34q0 -49 -97 -77q-70 -28 -151 -105q-122 -143 -122 -259q0 -112 134 -156q35 -9 69 -9h13v2q-19 64 -19 122q0 324 460 517q119 43 199 43zM634 626h2q146 43 302 172q105 94 141 145
q81 109 81 162q0 50 -45 57h-15q-77 0 -233 -159q-171 -197 -230 -361zM777 1554l15 2q96 15 221 -178l1 -4l9 1q144 195 167 198l25 4q45 7 59 -48q6 -32 -170 -332q-18 -11 -52 -16l-112 -18q-46 -7 -70 47l-22 112q-10 49 -109 173l-1 4q0 49 39 55z" />
    <glyph glyph-name="gbreve" unicode="&#x11f;" horiz-adv-x="977" 
d="M522 632h8q90 0 146 -56q22 41 51 41l199 15q39 -9 39 -40v-5q0 -18 -36 -75l-207 -364v-1q72 45 200 153q177 163 236 209q64 48 102 48q41 0 58 -23q8 -13 8 -26q0 -28 -48 -53q-84 -64 -286 -255q-141 -124 -231 -169q-58 -37 -152 -73q-3 0 -28 -47
q-84 -159 -225 -331q-176 -195 -361 -195q-146 0 -210 114q-15 34 -15 68v5q0 214 402 375v1q-38 0 -97 38q-83 67 -83 167v18q0 217 313 398q120 63 217 63zM222 61h1q108 21 285 253q81 114 86 156q0 31 -33 31q-65 -16 -223 -233q-112 -160 -116 -207zM-71 -446
q0 -42 50 -42h5q103 0 288 341h-2q-92 -37 -185 -100q-156 -112 -156 -199zM479 910l14 2q89 10 190 -171v-4l9 1q146 174 168 177l23 3q42 5 51 -47q3 -29 -181 -299q-16 -10 -49 -14l-104 -12q-42 -5 -60 45l-13 103q-5 46 -88 163v4q4 45 40 49z" />
    <glyph glyph-name="Idotaccent" unicode="&#x130;" horiz-adv-x="1126" 
d="M1556 1281h10q47 0 65 -41l3 -16q0 -36 -40 -53q-20 -7 -58 -7q-86 -29 -203 -223q-109 -193 -240 -473h1q97 -3 148 62q19 28 33 175q13 67 67 75h3q47 -18 50 -65l4 -29q18 -246 -150 -332q-123 -48 -205 -38q-35 -3 -35 -15q-87 -164 -347 -266q-135 -48 -275 -48
q-221 0 -328 142q-32 55 -32 111v5q0 117 106 187q53 30 104 30h18q79 0 119 -68q19 -32 19 -70v-13q0 -86 -95 -117q-79 -17 -91 -25q14 -24 73 -49q43 -12 79 -12h10q208 0 339 255l-2 1q-132 38 -190 122q-59 79 -59 181q0 263 392 457q354 157 707 157zM657 587
q10 -59 96 -84l22 -5q102 229 245 426q41 57 143 156l32 29h-1q-171 -46 -339 -190q-198 -187 -198 -332zM1335 1497q79 0 120 -104l4 -32v-8q0 -98 -116 -136h-28q-98 0 -136 112v36q0 99 116 132h40z" />
    <glyph glyph-name="dotlessi" unicode="&#x131;" horiz-adv-x="563" 
 />
    <glyph glyph-name="Lslash" unicode="&#x141;" horiz-adv-x="1305" 
 />
    <glyph glyph-name="lslash" unicode="&#x142;" horiz-adv-x="573" 
 />
    <glyph glyph-name="OE" unicode="&#x152;" horiz-adv-x="1702" 
d="M1715 1283h38q201 0 299 -157q24 -52 24 -96v-38q0 -120 -132 -207q-56 -30 -116 -30h-3q-128 0 -168 133q-4 13 -4 41q0 112 139 188l36 7h10q62 -6 62 -53v-3q0 -26 -76 -91q-22 -32 -22 -51v-19q0 -31 36 -31q75 0 116 106l1 27v2q0 101 -108 137l-48 5h-7
q-138 0 -250 -193q-24 -62 -24 -113l2 -34h26q179 0 220 -86q6 -22 6 -36q0 -61 -98 -85l-29 -3q-85 0 -197 66q-82 -23 -184 -118q-104 -122 -113 -200q-9 -30 -14 -94q0 -148 182 -148q228 0 357 177q22 48 22 79v17q0 49 -48 67l-22 5q-106 0 -180 -166
q-25 -123 -44 -123q0 -10 -38 -19q-75 0 -75 103v17q0 189 176 290q58 28 128 28q159 -1 216 -142q10 -27 10 -57v-34q0 -161 -231 -297q-126 -67 -285 -67q-201 0 -337 108q-154 -108 -335 -108q-213 0 -342 140q-81 92 -81 214q0 56 19 130q-67 8 -152 77q-77 89 -77 191
v31q0 253 357 443q157 67 293 67h70q99 0 99 -67q0 -52 -80 -57q-279 0 -501 -276q-74 -110 -74 -183v-14q0 -71 82 -96l33 -8v3q62 119 222 287q154 147 292 243q259 163 407 163h31q108 0 168 -91h3q136 99 313 99zM674 623h3q103 31 202 91q95 54 246 207
q130 154 130 215q0 25 -19 25h-12q-90 0 -340 -268q-164 -189 -210 -270zM489 230q0 -125 142 -125h12q120 0 245 84q-45 70 -45 164q0 34 9 84q-60 -55 -72 -101q-9 -10 -39 -115q-22 -41 -52 -41h-15q-42 0 -55 60v29q0 141 108 246l-147 -34q-91 -159 -91 -251z" />
    <glyph glyph-name="oe" unicode="&#x153;" horiz-adv-x="1284" 
d="M505 723h27q152 0 206 -146q10 -36 10 -70v-8q243 221 442 221q122 0 165 -100q15 -31 15 -75q0 -175 -308 -289q-25 -10 -128 -33l-28 -87h23q145 0 414 245l208 176q106 85 151 85q70 0 70 -57q0 -25 -68 -60q-73 -56 -301 -272q-262 -214 -336 -223q-73 -30 -153 -30
q-178 0 -259 151q-78 -56 -181 -56q-121 -95 -271 -95q-179 0 -238 181l-5 52v23q0 169 221 344q179 123 324 123zM246 156v-18h5q41 0 85 33v15q0 77 108 113q28 0 53 45q90 118 90 196q0 32 -20 45h-10q-90 -21 -241 -261q-70 -116 -70 -168zM999 371h3q132 68 175 159
q13 26 13 45l-3 7q-82 -31 -183 -201z" />
    <glyph glyph-name="Omega" unicode="&#x3a9;" horiz-adv-x="1567" 
d="M1100 188v-26h313l66 203h61l-108 -365h-500q134 233 202 451t68 413q0 271 -107.5 416t-308.5 145t-309 -145t-108 -416q0 -195 68 -411t204 -453h-500l-110 365h61l68 -203h311v26q-165 203 -234 361.5t-69 327.5q0 272 174.5 446t443.5 174t443 -174.5t174 -445.5
q0 -169 -69 -327.5t-234 -361.5z" />
    </font>
</defs>
</svg>
